<?xml version="1.0" encoding="UTF-8"?> <svg xmlns="http://www.w3.org/2000/svg" id="Bits_Bites" viewBox="0 0 150 110"><g id="Kaffee_Bits_Bytes"><ellipse cx="72.74" cy="59.65" rx="28.64" ry="13.5" fill="#fff" stroke="#f39325" stroke-miterlimit="10" stroke-width="1.65"></ellipse><path d="M92.34,39.59c0,4.57-8.59,7.92-19.22,7.92s-19.28-4.05-19.28-8.62c0,0,.7,27.96,18.63,27.96s19.87-27.27,19.87-27.27Z" fill="#f39325"></path><path d="M91.76,43.94s1.74-4.58,7.31-2.61c5.15,1.82,1.74,8.46.46,10.09s-3.71,4.93-11.25,4.35" fill="none" stroke="#f39325" stroke-linecap="round" stroke-miterlimit="10" stroke-width="3.3"></path><ellipse cx="73.11" cy="39.19" rx="19.25" ry="8.27" fill="#fff" stroke="#f39325" stroke-miterlimit="10" stroke-width="1.65"></ellipse><path d="M66.51,15.62s-2.2,3.48-1.51,6.61c.7,3.13,3.46,5.65,4.17,8.35,1.16,4.41-.46,8.7-.46,8.7,0,0,3.01-2.09,3.25-7.31.23-5.22-3.24-5.89-4.66-8.93-1.09-2.33-.79-7.42-.79-7.42Z" fill="#4b5459"></path><path d="M71.83,6.82s-1.95,2.54-2.3,5.67c-.35,3.13-.28,5.71,2.67,10.55,4.07,6.7,3.79,9.56,3.59,11.83-.47,5.34-2.83,7.32-2.83,7.32,0,0,5.14-1.94,6.04-7.54.8-4.99.17-7.9-1.6-10.47-2.07-3.02-4.53-3.58-5.85-8.58-.7-2.66.28-8.77.28-8.77Z" fill="#4b5459"></path><path d="M9.96,81.48h6.61c1.31,0,2.28.05,2.93.16.64.11,1.22.34,1.72.68.51.34.93.81,1.27,1.38s.51,1.22.51,1.93c0,.77-.21,1.48-.63,2.13-.42.65-.98,1.13-1.7,1.45,1.01.29,1.78.79,2.32,1.5.54.71.81,1.54.81,2.49,0,.75-.17,1.48-.52,2.19s-.83,1.28-1.43,1.7c-.6.43-1.35.69-2.24.78-.56.06-1.9.1-4.02.11h-5.63v-16.53ZM13.3,84.23v3.82h2.19c1.3,0,2.11-.02,2.42-.06.57-.07,1.02-.27,1.35-.59s.49-.76.49-1.29-.14-.93-.42-1.25c-.28-.32-.7-.51-1.26-.58-.33-.04-1.28-.06-2.85-.06h-1.92ZM13.3,90.81v4.42h3.09c1.2,0,1.97-.03,2.29-.1.5-.09.9-.31,1.21-.66s.47-.82.47-1.4c0-.5-.12-.92-.36-1.26-.24-.35-.59-.6-1.04-.76s-1.44-.24-2.96-.24h-2.69Z" fill="#4b5459"></path><path d="M26.6,84.42v-2.93h3.17v2.93h-3.17ZM26.6,98.01v-11.97h3.17v11.97h-3.17Z" fill="#4b5459"></path><path d="M38.5,86.04v2.53h-2.16v4.82c0,.98.02,1.55.06,1.71.04.16.14.29.28.4.15.1.33.16.54.16.29,0,.72-.1,1.27-.3l.27,2.46c-.74.32-1.57.47-2.5.47-.57,0-1.09-.1-1.54-.29s-.79-.44-1.01-.74-.36-.72-.45-1.23c-.07-.37-.1-1.11-.1-2.23v-5.22h-1.45v-2.53h1.45v-2.38l3.18-1.85v4.23h2.16Z" fill="#4b5459"></path><path d="M39.59,94.59l3.18-.48c.14.62.41,1.08.82,1.4.41.32.99.48,1.74.48.82,0,1.44-.15,1.85-.45.28-.21.42-.49.42-.85,0-.24-.07-.44-.23-.6-.16-.15-.51-.29-1.06-.42-2.55-.56-4.18-1.08-4.86-1.54-.95-.65-1.42-1.54-1.42-2.69,0-1.04.41-1.91,1.23-2.62.82-.71,2.09-1.06,3.81-1.06s2.86.27,3.65.8c.8.53,1.35,1.32,1.65,2.37l-2.99.55c-.13-.47-.37-.82-.73-1.07s-.87-.37-1.53-.37c-.83,0-1.43.12-1.79.35-.24.16-.36.38-.36.64,0,.23.11.42.32.57.29.21,1.27.51,2.96.89s2.86.85,3.53,1.41c.66.56.99,1.35.99,2.36,0,1.1-.46,2.04-1.38,2.83s-2.27,1.18-4.07,1.18c-1.63,0-2.92-.33-3.87-.99-.95-.66-1.57-1.56-1.87-2.69Z" fill="#4b5459"></path><path d="M63.59,95.63v-4.3h-4.33v-2.96h4.33v-4.3h2.89v4.3h4.34v2.96h-4.34v4.3h-2.89Z" fill="#4b5459"></path><path d="M79.89,81.48h6.61c1.31,0,2.28.05,2.93.16.64.11,1.22.34,1.72.68.51.34.93.81,1.27,1.38s.51,1.22.51,1.93c0,.77-.21,1.48-.63,2.13-.42.65-.98,1.13-1.7,1.45,1.01.29,1.78.79,2.32,1.5.54.71.81,1.54.81,2.49,0,.75-.17,1.48-.52,2.19s-.83,1.28-1.43,1.7c-.6.43-1.35.69-2.24.78-.56.06-1.9.1-4.02.11h-5.63v-16.53ZM83.22,84.23v3.82h2.19c1.3,0,2.11-.02,2.42-.06.57-.07,1.02-.27,1.35-.59s.49-.76.49-1.29-.14-.93-.42-1.25c-.28-.32-.7-.51-1.26-.58-.33-.04-1.28-.06-2.85-.06h-1.92ZM83.22,90.81v4.42h3.09c1.2,0,1.97-.03,2.29-.1.5-.09.9-.31,1.21-.66s.47-.82.47-1.4c0-.5-.12-.92-.36-1.26-.24-.35-.59-.6-1.04-.76s-1.44-.24-2.96-.24h-2.69Z" fill="#4b5459"></path><path d="M95.03,86.04h3.37l2.86,8.5,2.8-8.5h3.28l-4.23,11.52-.76,2.09c-.28.7-.54,1.23-.79,1.6-.25.37-.54.67-.87.9-.33.23-.73.41-1.21.54-.48.13-1.02.19-1.62.19s-1.21-.06-1.79-.19l-.28-2.48c.5.1.94.15,1.34.15.74,0,1.28-.22,1.63-.65.35-.43.62-.98.81-1.65l-4.55-12.01Z" fill="#4b5459"></path><path d="M114.86,86.04v2.53h-2.16v4.82c0,.98.02,1.55.06,1.71.04.16.14.29.28.4.15.1.33.16.54.16.29,0,.72-.1,1.27-.3l.27,2.46c-.74.32-1.57.47-2.5.47-.57,0-1.09-.1-1.54-.29s-.79-.44-1.01-.74-.36-.72-.45-1.23c-.07-.37-.1-1.11-.1-2.23v-5.22h-1.45v-2.53h1.45v-2.38l3.18-1.85v4.23h2.16Z" fill="#4b5459"></path><path d="M123.99,94.2l3.16.53c-.41,1.16-1.05,2.04-1.92,2.64-.88.61-1.97.91-3.29.91-2.08,0-3.62-.68-4.62-2.04-.79-1.09-1.18-2.47-1.18-4.13,0-1.98.52-3.54,1.56-4.66,1.04-1.12,2.35-1.68,3.93-1.68,1.78,0,3.19.59,4.22,1.76,1.03,1.18,1.52,2.98,1.48,5.41h-7.94c.02.94.28,1.67.77,2.19.49.52,1.1.78,1.83.78.5,0,.91-.14,1.25-.41s.59-.71.77-1.31ZM124.17,91c-.02-.92-.26-1.61-.71-2.09-.45-.48-1-.72-1.65-.72-.69,0-1.26.25-1.71.76-.45.5-.67,1.19-.67,2.05h4.73Z" fill="#4b5459"></path><path d="M128.78,94.59l3.18-.48c.14.62.41,1.08.82,1.4.41.32.99.48,1.74.48.82,0,1.44-.15,1.85-.45.28-.21.42-.49.42-.85,0-.24-.07-.44-.23-.6-.16-.15-.51-.29-1.06-.42-2.55-.56-4.18-1.08-4.86-1.54-.95-.65-1.42-1.54-1.42-2.69,0-1.04.41-1.91,1.23-2.62.82-.71,2.09-1.06,3.81-1.06s2.86.27,3.65.8c.8.53,1.35,1.32,1.65,2.37l-2.99.55c-.13-.47-.37-.82-.73-1.07s-.87-.37-1.53-.37c-.83,0-1.43.12-1.79.35-.24.16-.36.38-.36.64,0,.23.11.42.32.57.29.21,1.27.51,2.96.89s2.86.85,3.53,1.41c.66.56.99,1.35.99,2.36,0,1.1-.46,2.04-1.38,2.83s-2.27,1.18-4.07,1.18c-1.63,0-2.92-.33-3.87-.99-.95-.66-1.57-1.56-1.87-2.69Z" fill="#4b5459"></path></g></svg> 