<?xml version="1.0" encoding="UTF-8"?> <svg xmlns="http://www.w3.org/2000/svg" id="Cafeteria" viewBox="0 0 120 110"><g id="Kaffee_Cafeteria"><ellipse cx="57.94" cy="59.03" rx="28.66" ry="13.51" fill="#fff" stroke="#f39325" stroke-miterlimit="10" stroke-width="1.65"></ellipse><path d="M77.55,38.96c0,4.57-8.59,7.93-19.23,7.93s-19.29-4.05-19.29-8.62c0,0,.7,27.98,18.64,27.98s19.88-27.29,19.88-27.29Z" fill="#f39325"></path><path d="M76.97,43.31s1.74-4.58,7.31-2.61c5.15,1.83,1.74,8.47.46,10.09-1.28,1.62-3.71,4.93-11.25,4.35" fill="none" stroke="#f39325" stroke-linecap="round" stroke-miterlimit="10" stroke-width="3.3"></path><ellipse cx="58.31" cy="38.55" rx="19.27" ry="8.28" fill="#fff" stroke="#f39325" stroke-miterlimit="10" stroke-width="1.65"></ellipse><path d="M51.7,14.97s-2.2,3.48-1.51,6.61,3.47,5.65,4.18,8.35c1.16,4.41-.46,8.7-.46,8.7,0,0,3.02-2.09,3.25-7.31.23-5.22-3.24-5.89-4.66-8.93-1.09-2.33-.79-7.43-.79-7.43Z" fill="#4b5459"></path><path d="M57.03,6.17s-1.96,2.54-2.3,5.67-.28,5.71,2.67,10.56c4.07,6.7,3.8,9.56,3.6,11.83-.47,5.34-2.83,7.33-2.83,7.33,0,0,5.14-1.94,6.04-7.55.8-4.99.17-7.9-1.6-10.48-2.08-3.02-4.53-3.59-5.85-8.59-.7-2.67.28-8.78.28-8.78Z" fill="#4b5459"></path><path d="M22.24,91.89l3.24,1.03c-.5,1.8-1.32,3.15-2.48,4.02s-2.62,1.31-4.39,1.31c-2.2,0-4-.75-5.41-2.25s-2.12-3.55-2.12-6.15c0-2.75.71-4.89,2.13-6.41s3.29-2.28,5.61-2.28c2.02,0,3.67.6,4.93,1.79.75.71,1.32,1.72,1.69,3.05l-3.31.79c-.2-.86-.6-1.53-1.22-2.03s-1.37-.74-2.26-.74c-1.23,0-2.22.44-2.98,1.32s-1.14,2.31-1.14,4.28c0,2.09.38,3.58,1.13,4.47s1.73,1.33,2.93,1.33c.89,0,1.65-.28,2.29-.85s1.1-1.45,1.38-2.66Z" fill="#4b5459"></path><path d="M30.69,89.65l-2.88-.52c.32-1.16.88-2.02,1.67-2.57s1.96-.83,3.52-.83c1.41,0,2.47.17,3.16.5s1.18.76,1.46,1.27.42,1.46.42,2.84l-.03,3.7c0,1.05.05,1.83.15,2.33s.29,1.04.57,1.61h-3.14c-.08-.21-.18-.52-.3-.94-.05-.19-.09-.31-.11-.37-.54.53-1.12.92-1.74,1.18s-1.27.39-1.97.39c-1.23,0-2.21-.33-2.92-1s-1.07-1.52-1.07-2.54c0-.68.16-1.28.49-1.81s.78-.94,1.36-1.22,1.42-.53,2.52-.74c1.48-.28,2.51-.54,3.08-.78v-.32c0-.61-.15-1.04-.45-1.3s-.87-.39-1.7-.39c-.56,0-1,.11-1.32.33s-.57.61-.77,1.17ZM34.93,92.22c-.41.14-1.05.3-1.93.49s-1.46.37-1.73.55c-.41.29-.62.67-.62,1.12s.17.83.5,1.15.75.49,1.26.49c.57,0,1.12-.19,1.64-.56.38-.29.64-.64.76-1.05.08-.27.12-.79.12-1.55v-.63Z" fill="#4b5459"></path><path d="M39.79,85.99h1.76v-.9c0-1.01.11-1.76.32-2.26s.61-.9,1.18-1.21,1.3-.47,2.18-.47,1.79.14,2.65.41l-.43,2.21c-.5-.12-.99-.18-1.46-.18s-.79.11-.99.32-.3.63-.3,1.24v.85h2.37v2.49h-2.37v9.49h-3.17v-9.49h-1.76v-2.49Z" fill="#4b5459"></path><path d="M55.8,94.16l3.16.53c-.41,1.16-1.05,2.04-1.92,2.65s-1.97.91-3.29.91c-2.08,0-3.63-.68-4.62-2.04-.79-1.09-1.18-2.47-1.18-4.13,0-1.99.52-3.54,1.56-4.66s2.35-1.69,3.94-1.69c1.78,0,3.19.59,4.22,1.77s1.52,2.98,1.48,5.41h-7.94c.02.94.28,1.67.77,2.19s1.1.78,1.83.78c.5,0,.91-.14,1.25-.41s.59-.71.77-1.31ZM55.98,90.95c-.02-.92-.26-1.61-.71-2.09s-1-.72-1.65-.72c-.69,0-1.26.25-1.71.76s-.67,1.19-.67,2.05h4.74Z" fill="#4b5459"></path><path d="M67.21,85.99v2.53h-2.17v4.83c0,.98.02,1.55.06,1.71s.14.29.28.4.33.16.54.16c.29,0,.72-.1,1.27-.3l.27,2.46c-.74.32-1.57.47-2.5.47-.57,0-1.09-.1-1.55-.29s-.8-.44-1.01-.74-.36-.72-.45-1.24c-.07-.37-.1-1.11-.1-2.23v-5.22h-1.46v-2.53h1.46v-2.38l3.18-1.85v4.23h2.17Z" fill="#4b5459"></path><path d="M76.35,94.16l3.16.53c-.41,1.16-1.05,2.04-1.92,2.65s-1.97.91-3.29.91c-2.08,0-3.63-.68-4.62-2.04-.79-1.09-1.18-2.47-1.18-4.13,0-1.99.52-3.54,1.56-4.66s2.35-1.69,3.94-1.69c1.78,0,3.19.59,4.22,1.77s1.52,2.98,1.48,5.41h-7.94c.02.94.28,1.67.77,2.19s1.1.78,1.83.78c.5,0,.91-.14,1.25-.41s.59-.71.77-1.31ZM76.53,90.95c-.02-.92-.26-1.61-.71-2.09s-1-.72-1.65-.72c-.69,0-1.26.25-1.71.76s-.67,1.19-.67,2.05h4.74Z" fill="#4b5459"></path><path d="M85.29,97.97h-3.17v-11.98h2.94v1.7c.5-.8.96-1.34,1.36-1.59s.86-.38,1.37-.38c.72,0,1.42.2,2.09.6l-.98,2.76c-.53-.35-1.03-.52-1.49-.52s-.82.12-1.13.37-.55.69-.73,1.33-.27,1.98-.27,4.02v3.7Z" fill="#4b5459"></path><path d="M91.25,84.37v-2.93h3.17v2.93h-3.17ZM91.25,97.97v-11.98h3.17v11.98h-3.17Z" fill="#4b5459"></path><path d="M100.03,89.65l-2.88-.52c.32-1.16.88-2.02,1.67-2.57s1.96-.83,3.52-.83c1.41,0,2.47.17,3.16.5s1.18.76,1.46,1.27.42,1.46.42,2.84l-.03,3.7c0,1.05.05,1.83.15,2.33s.29,1.04.57,1.61h-3.14c-.08-.21-.18-.52-.3-.94-.05-.19-.09-.31-.11-.37-.54.53-1.12.92-1.74,1.18s-1.27.39-1.97.39c-1.23,0-2.21-.33-2.92-1s-1.07-1.52-1.07-2.54c0-.68.16-1.28.49-1.81s.78-.94,1.36-1.22,1.42-.53,2.52-.74c1.48-.28,2.51-.54,3.08-.78v-.32c0-.61-.15-1.04-.45-1.3s-.87-.39-1.7-.39c-.56,0-1,.11-1.32.33s-.57.61-.77,1.17ZM104.28,92.22c-.41.14-1.05.3-1.93.49s-1.46.37-1.73.55c-.41.29-.62.67-.62,1.12s.17.83.5,1.15.75.49,1.26.49c.57,0,1.12-.19,1.64-.56.38-.29.64-.64.76-1.05.08-.27.12-.79.12-1.55v-.63Z" fill="#4b5459"></path></g></svg> 