<?xml version="1.0" encoding="UTF-8"?> <svg xmlns="http://www.w3.org/2000/svg" id="Campus_Taste" viewBox="0 0 130 140"><ellipse cx="64.6" cy="61.07" rx="29" ry="13.67" fill="#fff" stroke="#f39325" stroke-miterlimit="10" stroke-width="1.67"></ellipse><path d="M84.44,40.76c0,4.63-8.69,8.02-19.46,8.02s-19.52-4.1-19.52-8.73c0,0,.7,28.32,18.87,28.32s20.12-27.61,20.12-27.61Z" fill="#f39325"></path><path d="M83.86,45.16s1.76-4.64,7.4-2.64c5.22,1.85,1.76,8.57.47,10.22-1.29,1.64-3.76,4.99-11.39,4.4" fill="none" stroke="#f39325" stroke-linecap="round" stroke-miterlimit="10" stroke-width="3.34"></path><ellipse cx="64.97" cy="40.35" rx="19.5" ry="8.38" fill="#fff" stroke="#f39325" stroke-miterlimit="10" stroke-width="1.67"></ellipse><path d="M58.29,16.48s-2.23,3.52-1.53,6.69,3.51,5.72,4.23,8.45c1.17,4.46-.47,8.81-.47,8.81,0,0,3.05-2.11,3.29-7.4.23-5.28-3.28-5.96-4.72-9.04-1.11-2.36-.8-7.52-.8-7.52Z" fill="#4b5459"></path><path d="M63.67,7.58s-1.98,2.57-2.33,5.74c-.35,3.17-.28,5.78,2.7,10.69,4.12,6.78,3.84,9.68,3.64,11.98-.48,5.41-2.86,7.41-2.86,7.41,0,0,5.21-1.97,6.11-7.64.81-5.05.17-8-1.62-10.6-2.1-3.06-4.58-3.63-5.92-8.69-.71-2.7.29-8.88.29-8.88Z" fill="#4b5459"></path><path d="M30.11,92.76l3.28,1.04c-.5,1.83-1.34,3.18-2.51,4.07-1.17.89-2.65,1.33-4.45,1.33-2.22,0-4.05-.76-5.48-2.28s-2.15-3.59-2.15-6.23c0-2.79.72-4.95,2.16-6.49s3.33-2.31,5.67-2.31c2.05,0,3.71.61,4.99,1.82.76.72,1.33,1.74,1.71,3.08l-3.34.8c-.2-.87-.61-1.55-1.24-2.05s-1.39-.75-2.29-.75c-1.24,0-2.25.45-3.02,1.34s-1.16,2.33-1.16,4.33c0,2.12.38,3.62,1.14,4.52.76.9,1.75,1.35,2.97,1.35.9,0,1.67-.29,2.32-.86s1.11-1.47,1.39-2.69Z" fill="#4b5459"></path><path d="M38.66,90.49l-2.91-.53c.33-1.17.89-2.04,1.69-2.6.8-.56,1.99-.84,3.56-.84,1.43,0,2.5.17,3.2.51.7.34,1.19.77,1.48,1.29.29.52.43,1.48.43,2.87l-.03,3.74c0,1.07.05,1.85.15,2.36.1.51.3,1.05.58,1.63h-3.17c-.08-.21-.19-.53-.31-.95-.05-.19-.09-.31-.11-.38-.55.53-1.13.93-1.76,1.2-.62.27-1.29.4-2,.4-1.25,0-2.23-.34-2.95-1.02-.72-.68-1.08-1.53-1.08-2.57,0-.68.16-1.29.49-1.83s.79-.95,1.38-1.23,1.44-.53,2.55-.75c1.5-.28,2.54-.54,3.12-.79v-.32c0-.62-.15-1.06-.46-1.32s-.88-.39-1.72-.39c-.57,0-1.02.11-1.34.34-.32.22-.58.62-.78,1.18ZM42.96,93.09c-.41.14-1.06.3-1.95.49-.89.19-1.47.38-1.75.56-.42.3-.63.67-.63,1.13s.17.84.5,1.16c.34.33.76.49,1.28.49.58,0,1.13-.19,1.66-.57.39-.29.64-.64.76-1.06.08-.27.13-.79.13-1.56v-.64Z" fill="#4b5459"></path><path d="M49.03,86.79h2.96v1.66c1.06-1.29,2.32-1.93,3.78-1.93.78,0,1.45.16,2.02.48s1.04.8,1.4,1.45c.53-.65,1.11-1.13,1.72-1.45s1.27-.48,1.97-.48c.89,0,1.64.18,2.26.54.62.36,1.08.89,1.38,1.59.22.52.33,1.36.33,2.51v7.75h-3.21v-6.93c0-1.2-.11-1.98-.33-2.33-.3-.46-.75-.68-1.37-.68-.45,0-.87.14-1.27.41s-.68.68-.86,1.21c-.18.53-.26,1.36-.26,2.5v5.82h-3.21v-6.64c0-1.18-.06-1.94-.17-2.28s-.29-.6-.53-.76c-.24-.17-.57-.25-.98-.25-.49,0-.94.13-1.34.4-.4.27-.68.65-.85,1.15s-.26,1.34-.26,2.5v5.89h-3.21v-12.12Z" fill="#4b5459"></path><path d="M69.97,86.79h2.99v1.78c.39-.61.91-1.1,1.58-1.48.66-.38,1.4-.57,2.2-.57,1.41,0,2.6.55,3.58,1.66.98,1.1,1.47,2.64,1.47,4.61s-.49,3.6-1.48,4.72c-.99,1.12-2.19,1.68-3.6,1.68-.67,0-1.28-.13-1.82-.4-.54-.27-1.12-.72-1.72-1.37v6.11h-3.21v-16.74ZM73.14,92.65c0,1.36.27,2.37.81,3.02s1.2.98,1.97.98,1.37-.3,1.86-.9c.49-.6.74-1.58.74-2.94,0-1.27-.26-2.21-.76-2.83s-1.14-.92-1.89-.92-1.43.3-1.95.91-.78,1.5-.78,2.69Z" fill="#4b5459"></path><path d="M92.32,98.92v-1.82c-.44.65-1.02,1.16-1.74,1.53-.72.37-1.48.56-2.28.56s-1.55-.18-2.19-.54c-.65-.36-1.11-.86-1.4-1.51-.29-.65-.43-1.54-.43-2.68v-7.67h3.21v5.57c0,1.71.06,2.75.18,3.13.12.38.33.69.64.91.31.22.71.34,1.19.34.55,0,1.04-.15,1.47-.45.43-.3.73-.67.89-1.12s.24-1.54.24-3.27v-5.11h3.21v12.12h-2.98Z" fill="#4b5459"></path><path d="M97.49,95.46l3.22-.49c.14.62.42,1.1.83,1.42.42.32,1,.48,1.76.48.83,0,1.45-.15,1.87-.46.28-.21.42-.5.42-.86,0-.24-.08-.45-.23-.61-.16-.15-.52-.29-1.07-.42-2.59-.57-4.23-1.09-4.92-1.56-.96-.65-1.44-1.56-1.44-2.73,0-1.05.42-1.93,1.24-2.65.83-.71,2.12-1.07,3.86-1.07s2.89.27,3.7.81c.81.54,1.36,1.34,1.67,2.4l-3.03.56c-.13-.47-.38-.83-.74-1.08s-.88-.38-1.55-.38c-.84,0-1.45.12-1.82.35-.24.17-.37.38-.37.65,0,.23.11.42.32.58.29.21,1.29.51,3,.9s2.9.86,3.58,1.43c.67.57,1,1.37,1,2.39,0,1.11-.46,2.07-1.39,2.87s-2.3,1.2-4.12,1.2c-1.65,0-2.96-.33-3.92-1-.96-.67-1.59-1.58-1.89-2.73Z" fill="#4b5459"></path><path d="M39.62,123.96v-13.9h-4.97v-2.83h13.3v2.83h-4.95v13.9h-3.38Z" fill="#4b5459"></path><path d="M50.78,115.54l-2.91-.53c.33-1.17.89-2.04,1.69-2.6.8-.56,1.99-.84,3.56-.84,1.43,0,2.5.17,3.2.51.7.34,1.19.77,1.48,1.29.29.52.43,1.48.43,2.87l-.03,3.74c0,1.07.05,1.85.15,2.36.1.51.3,1.05.58,1.63h-3.17c-.08-.21-.19-.53-.31-.95-.05-.19-.09-.31-.11-.38-.55.53-1.13.93-1.76,1.2-.62.27-1.29.4-2,.4-1.25,0-2.23-.34-2.95-1.02-.72-.68-1.08-1.53-1.08-2.57,0-.68.16-1.29.49-1.83s.79-.95,1.38-1.23,1.44-.53,2.55-.75c1.5-.28,2.54-.54,3.12-.79v-.32c0-.62-.15-1.06-.46-1.32s-.88-.39-1.72-.39c-.57,0-1.02.11-1.34.34-.32.22-.58.62-.78,1.18ZM55.07,118.14c-.41.14-1.06.3-1.95.49-.89.19-1.47.38-1.75.56-.42.3-.63.67-.63,1.13s.17.84.5,1.16c.34.33.76.49,1.28.49.58,0,1.13-.19,1.66-.57.39-.29.64-.64.76-1.06.08-.27.13-.79.13-1.56v-.64Z" fill="#4b5459"></path><path d="M60.25,120.51l3.22-.49c.14.62.42,1.1.83,1.42.42.32,1,.48,1.76.48.83,0,1.45-.15,1.87-.46.28-.21.42-.5.42-.86,0-.24-.08-.45-.23-.61-.16-.15-.52-.29-1.07-.42-2.59-.57-4.23-1.09-4.92-1.56-.96-.65-1.44-1.56-1.44-2.73,0-1.05.42-1.93,1.24-2.65.83-.71,2.12-1.07,3.86-1.07s2.89.27,3.7.81c.81.54,1.36,1.34,1.67,2.4l-3.03.56c-.13-.47-.38-.83-.74-1.08s-.88-.38-1.55-.38c-.84,0-1.45.12-1.82.35-.24.17-.37.38-.37.65,0,.23.11.42.32.58.29.21,1.29.51,3,.9s2.9.86,3.58,1.43c.67.57,1,1.37,1,2.39,0,1.11-.46,2.07-1.39,2.87s-2.3,1.2-4.12,1.2c-1.65,0-2.96-.33-3.92-1-.96-.67-1.59-1.58-1.89-2.73Z" fill="#4b5459"></path><path d="M79.94,111.84v2.56h-2.19v4.89c0,.99.02,1.57.06,1.73.04.16.14.3.29.4.15.11.33.16.54.16.3,0,.73-.1,1.29-.31l.27,2.49c-.75.32-1.59.48-2.53.48-.58,0-1.1-.1-1.56-.29s-.8-.45-1.02-.75-.37-.73-.45-1.25c-.07-.37-.1-1.13-.1-2.26v-5.29h-1.47v-2.56h1.47v-2.41l3.22-1.87v4.28h2.19Z" fill="#4b5459"></path><path d="M89.19,120.11l3.2.54c-.41,1.17-1.06,2.06-1.95,2.68-.89.61-2,.92-3.33.92-2.11,0-3.67-.69-4.68-2.07-.8-1.1-1.2-2.5-1.2-4.18,0-2.01.53-3.58,1.58-4.72,1.05-1.14,2.38-1.71,3.98-1.71,1.8,0,3.23.6,4.27,1.79,1.04,1.19,1.54,3.02,1.5,5.47h-8.04c.02.95.28,1.69.78,2.22.49.53,1.11.79,1.85.79.5,0,.92-.14,1.27-.41s.6-.71.78-1.32ZM89.37,116.86c-.02-.93-.26-1.63-.72-2.12-.46-.48-1.01-.73-1.67-.73-.7,0-1.28.26-1.74.76-.46.51-.68,1.2-.67,2.08h4.79Z" fill="#4b5459"></path></svg> 