<?xml version="1.0" encoding="UTF-8"?> <svg xmlns="http://www.w3.org/2000/svg" id="Ebene_5" viewBox="0 0 60 60"><path d="M45.51,22.43c0-.74.12-.87.34-1.02,1.23-.85,2.17-2.14,2.17-3.75,0-1.31-.57-2.42-1.49-3.22l-.34.31v2.96l-2.46,1.5-2.57-1.43v-3.11l-.33-.23c-.88.79-1.44,1.94-1.44,3.22,0,1.57.87,2.89,2.09,3.69.22.14.39.28.39.96v17.56c0,.67-.18.81-.39.96-1.22.8-2.09,2.13-2.09,3.69,0,1.28.56,2.43,1.44,3.22l.33-.23v-3.11s2.57-1.43,2.57-1.43l2.46,1.5v2.96s.34.31.34.31c.92-.79,1.49-1.91,1.49-3.22,0-1.6-.94-2.9-2.17-3.75-.22-.15-.34-.28-.34-1.02v-17.32Z" fill="#f39325"></path><rect x="17.89" y="13.88" width="9.77" height="34.24" fill="#f39325"></rect><circle cx="11.9" cy="28.31" r="6.88" fill="none" stroke="#4b5459" stroke-miterlimit="10" stroke-width=".88"></circle><circle cx="32.69" cy="33.63" r="6.88" fill="none" stroke="#4b5459" stroke-miterlimit="10" stroke-width=".88"></circle><line x1="20.12" y1="18.61" x2="20.66" y2="33.48" fill="none" stroke="#4b5459" stroke-linecap="round" stroke-miterlimit="10" stroke-width=".88"></line><line x1="19.25" y1="33.28" x2="21.84" y2="33.95" fill="none" stroke="#4b5459" stroke-linecap="round" stroke-miterlimit="10" stroke-width=".88"></line><line x1="20.23" y1="22.51" x2="11.67" y2="28.34" fill="none" stroke="#4b5459" stroke-linecap="round" stroke-miterlimit="10" stroke-width=".88"></line><line x1="20.51" y1="30.52" x2="11.69" y2="28.26" fill="none" stroke="#4b5459" stroke-linecap="round" stroke-miterlimit="10" stroke-width=".88"></line><path d="M31.01,22.47s-2.04-.56-4.26,1.28c-1.92,1.58-2.04,2.25-3.97,3.5-1.28.83-2.27.53-2.27.53" fill="none" stroke="#4b5459" stroke-linecap="round" stroke-miterlimit="10" stroke-width=".88"></path><path d="M30.98,23.92s-2.24-.27-4.08,2.08c-2.02,2.58-2.68,3.29-4.15,4.02-.97.48-2.24.51-2.24.51" fill="none" stroke="#4b5459" stroke-linecap="round" stroke-miterlimit="10" stroke-width=".88"></path><circle cx="20.51" cy="30.52" r="1.15" fill="#4b5459"></circle><circle cx="11.76" cy="28.33" r=".82" fill="#4b5459"></circle><circle cx="32.69" cy="33.68" r=".82" fill="#4b5459"></circle><path d="M17.99,17.36c-.47.27-.48,1.32.33,1.56s2.11.23,3.03.35,1.37-.24,1.19-.64-3.75-1.72-4.55-1.27Z" fill="#4b5459"></path><path d="M28.63,17.79l2.71.69s.69.22.55.77-.77.83-.85,1.01-.04,6.94.16,8.02c.2,1.08,1.49,5.35,1.49,5.35" fill="none" stroke="#4b5459" stroke-linecap="round" stroke-miterlimit="10" stroke-width=".88"></path><path d="M28.55,20.39s1.49.36,2.48-.12" fill="none" stroke="#4b5459" stroke-linecap="round" stroke-miterlimit="10" stroke-width=".88"></path></svg> 