<?xml version="1.0" encoding="UTF-8"?> <svg xmlns="http://www.w3.org/2000/svg" id="Fahrradstation" viewBox="0 0 110 100"><g id="Fahrradstation_Gebaeude_G.1"><path d="M93.85,33.53c0-1.56.25-1.82.71-2.14,2.58-1.78,4.55-4.48,4.55-7.84,0-2.74-1.19-5.07-3.11-6.73l-.71.65v6.19l-5.16,3.15-5.37-2.99v-6.52l-.7-.48c-1.85,1.65-3.01,4.06-3.01,6.73,0,3.28,1.81,6.05,4.37,7.73.45.3.83.59.83,2v36.76c0,1.41-.37,1.7-.83,2-2.55,1.68-4.37,4.45-4.37,7.73,0,2.67,1.16,5.08,3.01,6.73l.7-.48v-6.52s5.37-2.99,5.37-2.99l5.16,3.15v6.19s.71.65.71.65c1.92-1.66,3.11-3.99,3.11-6.73,0-3.36-1.98-6.06-4.55-7.84-.46-.32-.71-.59-.71-2.14v-36.26Z" fill="#f39325"></path><rect x="36.03" y="15.63" width="20.45" height="71.66" fill="#f39325"></rect><circle cx="23.51" cy="45.82" r="14.39" fill="none" stroke="#4b5459" stroke-miterlimit="10" stroke-width="1.84"></circle><circle cx="67.01" cy="56.96" r="14.39" fill="none" stroke="#4b5459" stroke-miterlimit="10" stroke-width="1.84"></circle><line x1="40.71" y1="25.53" x2="41.83" y2="56.66" fill="none" stroke="#4b5459" stroke-linecap="round" stroke-miterlimit="10" stroke-width="1.84"></line><line x1="38.88" y1="56.23" x2="44.32" y2="57.63" fill="none" stroke="#4b5459" stroke-linecap="round" stroke-miterlimit="10" stroke-width="1.84"></line><line x1="40.94" y1="33.69" x2="23.02" y2="45.89" fill="none" stroke="#4b5459" stroke-linecap="round" stroke-miterlimit="10" stroke-width="1.84"></line><line x1="41.52" y1="50.46" x2="23.05" y2="45.73" fill="none" stroke="#4b5459" stroke-linecap="round" stroke-miterlimit="10" stroke-width="1.84"></line><path d="M63.5,33.61s-4.26-1.18-8.93,2.67c-4.01,3.32-4.27,4.72-8.31,7.32-2.68,1.73-4.76,1.11-4.76,1.11" fill="none" stroke="#4b5459" stroke-linecap="round" stroke-miterlimit="10" stroke-width="1.84"></path><path d="M63.44,36.63s-4.69-.57-8.54,4.35c-4.24,5.4-5.61,6.89-8.69,8.42-2.03,1.01-4.69,1.06-4.69,1.06" fill="none" stroke="#4b5459" stroke-linecap="round" stroke-miterlimit="10" stroke-width="1.84"></path><circle cx="41.52" cy="50.46" r="2.4" fill="#4b5459"></circle><circle cx="23.21" cy="45.88" r="1.72" fill="#4b5459"></circle><circle cx="67.02" cy="57.07" r="1.72" fill="#4b5459"></circle><path d="M36.26,22.91c-.99.56-1,2.76.69,3.27,1.69.51,4.42.49,6.35.73s2.86-.51,2.49-1.35-7.85-3.61-9.53-2.66Z" fill="#4b5459"></path><path d="M58.51,23.81l5.66,1.45s1.45.46,1.16,1.62c-.3,1.16-1.6,1.74-1.78,2.11s-.08,14.53.33,16.79,3.12,11.19,3.12,11.19" fill="none" stroke="#4b5459" stroke-linecap="round" stroke-miterlimit="10" stroke-width="1.84"></path><path d="M58.36,29.25s3.12.75,5.2-.26" fill="none" stroke="#4b5459" stroke-linecap="round" stroke-miterlimit="10" stroke-width="1.84"></path></g></svg> 