<?xml version="1.0" encoding="UTF-8"?> <svg xmlns="http://www.w3.org/2000/svg" id="Gebaeude_C_4" viewBox="0 0 210 130"><rect x="39.87" y="23.45" width="114.81" height="33.12" fill="#0078a0"></rect><path d="M20,16.83v47.47h170V16.83H20ZM154.68,56.57H39.87V23.45h114.81v33.12Z" fill="#8fbbdb"></path><rect x="20" y="64.3" width="170" height="48.57" fill="#0092c3"></rect><g id="C.4"><path d="M101.98,89.86l2.24.71c-.34,1.25-.92,2.18-1.71,2.79-.8.61-1.81.91-3.04.91-1.52,0-2.77-.52-3.75-1.56s-1.47-2.46-1.47-4.26c0-1.91.49-3.39,1.48-4.44s2.28-1.58,3.88-1.58c1.4,0,2.54.41,3.41,1.24.52.49.91,1.19,1.17,2.11l-2.29.55c-.14-.59-.42-1.06-.85-1.41s-.95-.52-1.57-.52c-.85,0-1.54.3-2.07.91s-.79,1.6-.79,2.96c0,1.45.26,2.48.78,3.09.52.61,1.2.92,2.03.92.61,0,1.14-.2,1.59-.59s.76-1,.95-1.84Z" fill="#dde9f5"></path><path d="M106.19,94.07v-2.2h2.2v2.2h-2.2Z" fill="#dde9f5"></path><path d="M114.89,94.27v-2.3h-4.69v-1.92l4.97-7.27h1.84v7.27h1.42v1.93h-1.42v2.3h-2.12ZM114.89,90.03v-3.91l-2.63,3.91h2.63Z" fill="#dde9f5"></path></g></svg> 