<?xml version="1.0" encoding="UTF-8"?> <svg xmlns="http://www.w3.org/2000/svg" id="Gebaeude_A_1" viewBox="0 0 260 160"><path d="M195.71,109.98c-4.73,2.36-10.45.7-10.45.7l-82.1,23.46-38.12-10.26,29.51-9.5-8.8-2.93,14.66-5.86,5.65,1.65,66.18-.18s1.28-3.7,14.47-3.7c5.87,0,9.13.92,10.45,2.23,1.47,1.47,1.47,2.93-1.47,4.4Z" fill="#f0847f" opacity=".4"></path><polygon points="96.72 103.03 87.92 100.21 87.92 42.4 96.72 44.91 96.72 103.03" fill="#e4003a"></polygon><path d="M185.79,107.4l-21.2-2.1v-57.81s.42-1.66,5.03-2.58c6.28-1.26,13.83-1.26,16.34,1.26,1.99,1.99-.16,3.11-.16,3.11v58.12Z" fill="#ee1747"></path><polygon points="164.59 105.24 103 104.67 103 46.17 108.03 47.43 164.59 47.43 164.59 105.24" fill="#e4003a"></polygon><polygon points="102.84 103.94 72.68 113.91 72.68 61.85 97.98 53.71 89.18 51.2 103 46.17 102.84 103.94" fill="#e4003a"></polygon><polygon points="36.39 114.04 32.46 115.79 32.46 56.82 36.39 54.97 36.39 114.04" fill="#e4003a"></polygon><polygon points="52.73 115.41 48.96 114.04 48.96 56.22 52.73 57.48 52.73 115.41" fill="#e4003a"></polygon><polygon points="50.06 123.44 14.86 113.38 14.86 56.82 50.06 66.88 50.06 123.44" fill="#e4003a"></polygon><polygon points="160.66 118.41 116.67 130.98 115.41 74.42 160.66 60.6 160.66 118.41" fill="#c50032"></polygon><path d="M224.76,35.46l-10.05,2.51-8.8-1.26-5.03,1.26h-30.16v-1.26h-82.95l.16,5.68,8.8,2.51-11.47,4.37-7.38-1.86-28.91,8.8,3.77,1.26-7.7,3.11-12.57-3.77,3.93-1.86-8.96-1.91-12.57,3.77,35.19,10.05-10.05,3.77,15.08,3.77,8.8-2.51,37.7,10.05,18.85-6.28-5.03-1.26,45.25-13.83,8.8,2.51,75.41-22.62-20.11-5.03ZM184.7,49.94c-4.05,2.03-8.96.6-8.96.6l-70.38,20.11-32.68-8.8,25.3-8.14-7.54-2.51,12.57-5.03,4.85,1.41,56.74-.16s1.1-3.17,12.41-3.17c5.04,0,7.83.79,8.96,1.91,1.26,1.26,1.26,2.51-1.26,3.77Z" fill="#f0847f"></path><polygon points="244.86 98.3 169.46 120.92 169.46 63.11 244.86 40.49 244.86 98.3" fill="#c50032"></polygon><polygon points="169.46 120.92 160.66 118.41 160.66 60.6 169.46 63.11 169.46 120.92" fill="#ee1747"></polygon><polygon points="120.44 132.85 101.59 138.52 101.59 81.96 120.44 75.68 120.44 132.85" fill="#c50032"></polygon><polygon points="101.59 138.52 63.88 128.46 63.88 71.91 101.59 81.96 101.59 138.52" fill="#e4003a"></polygon><polygon points="63.88 128.46 55.08 130.98 55.08 74.42 63.88 71.91 63.88 128.46" fill="#c50032"></polygon><polygon points="55.08 130.98 40 127.21 40 70.65 55.08 74.42 55.08 130.98" fill="#e4003a"></polygon><g id="A.1"><path d="M207.42,85.02l-2.52.72-1-2.31-4.58,1.31-.95,2.87-2.45.7,4.46-12.73,2.45-.7,4.59,10.14ZM203.16,81.71l-1.58-3.8-1.55,4.69,3.12-.9Z" fill="#fcdad4"></path><path d="M208.23,84.78v-2.2l2.2-.63v2.2l-2.2.63Z" fill="#fcdad4"></path><path d="M217.42,82.15l-2.2.63v-8.27c-.8.98-1.75,1.81-2.84,2.48v-1.99c.57-.35,1.2-.89,1.87-1.6.67-.72,1.13-1.46,1.38-2.23l1.78-.51v11.5Z" fill="#fcdad4"></path></g></svg> 