<?xml version="1.0" encoding="UTF-8"?> <svg xmlns="http://www.w3.org/2000/svg" id="Gebaeude_F_8" viewBox="0 0 130 115"><rect x="42.2" y="15.12" width="66.78" height="51.45" fill="#409253"></rect><rect x="18.98" y="33.12" width="90" height="68.4" fill="#44904a"></rect><polygon points="42.38 15.12 42.38 20.52 18.98 20.52 18.98 33.12 108.98 33.12 108.98 15.12 42.38 15.12" fill="#96b98d"></polygon><g id="F.8"><path d="M54.94,72.78v-11.45h7.85v1.94h-5.54v2.71h4.78v1.94h-4.78v4.87h-2.31Z" fill="#dde7da"></path><path d="M62.91,72.78v-2.2h2.2v2.2h-2.2Z" fill="#dde7da"></path><path d="M68.77,66.6c-.57-.24-.98-.57-1.24-.99-.26-.42-.39-.88-.39-1.38,0-.85.3-1.56.89-2.12.6-.56,1.44-.84,2.54-.84s1.93.28,2.54.84c.6.56.9,1.26.9,2.12,0,.53-.14,1-.41,1.42s-.66.73-1.16.95c.64.26,1.12.63,1.45,1.12.33.49.5,1.05.5,1.7,0,1.06-.34,1.92-1.01,2.58-.67.66-1.57.99-2.69.99-1.04,0-1.91-.27-2.6-.82-.82-.65-1.23-1.53-1.23-2.66,0-.62.15-1.19.46-1.71.31-.52.79-.92,1.45-1.2ZM69.02,69.3c0,.6.16,1.08.46,1.41.31.34.7.51,1.16.51s.83-.16,1.12-.49c.3-.33.45-.8.45-1.41,0-.54-.15-.97-.45-1.29-.3-.33-.68-.49-1.15-.49-.54,0-.94.19-1.2.55-.26.37-.39.77-.39,1.2ZM69.22,64.39c0,.44.12.78.37,1.02.25.25.58.37.99.37s.75-.12,1-.37c.25-.25.38-.59.38-1.03,0-.41-.12-.74-.37-.99-.25-.25-.57-.37-.98-.37s-.76.12-1.01.38-.38.58-.38.99Z" fill="#dde7da"></path></g></svg> 