<?xml version="1.0" encoding="UTF-8"?> <svg xmlns="http://www.w3.org/2000/svg" id="Gebaeude_F_9" viewBox="0 0 100 140"><rect x="17.63" y="18.66" width="65" height="55.11" fill="#96b98d"></rect><rect x="17.63" y="73.76" width="65" height="52.28" fill="#44904a"></rect><g id="F.9"><path d="M40.3,104.98v-11.45h7.85v1.94h-5.54v2.71h4.78v1.94h-4.78v4.87h-2.31Z" fill="#dde7da"></path><path d="M48.27,104.98v-2.2h2.2v2.2h-2.2Z" fill="#dde7da"></path><path d="M52.29,102.33l2.12-.23c.05.43.19.75.41.96.22.21.51.31.87.31.45,0,.84-.21,1.16-.62.32-.42.52-1.28.61-2.59-.55.64-1.24.96-2.07.96-.9,0-1.68-.35-2.33-1.04s-.98-1.6-.98-2.71.34-2.1,1.04-2.81,1.57-1.07,2.64-1.07c1.16,0,2.11.45,2.86,1.35s1.12,2.38,1.12,4.43-.39,3.6-1.16,4.53c-.78.93-1.79,1.39-3.03,1.39-.9,0-1.62-.24-2.17-.71s-.91-1.19-1.06-2.14ZM57.26,97.54c0-.71-.16-1.26-.49-1.65s-.7-.59-1.13-.59-.74.16-1.01.48-.4.85-.4,1.57.15,1.28.44,1.63c.29.35.66.52,1.09.52s.78-.17,1.07-.5c.29-.33.43-.82.43-1.47Z" fill="#dde7da"></path></g></svg> 