<?xml version="1.0" encoding="UTF-8"?> <svg xmlns="http://www.w3.org/2000/svg" id="Gebaeude_C_3" viewBox="0 0 160 140"><rect x="19.91" y="69.86" width="32.97" height="59.34" fill="#0092c3"></rect><polygon points="139.91 43.48 52.88 39.58 52.88 9.2 19.91 9.2 19.91 69.86 52.88 69.86 52.88 65.78 139.91 61.94 139.91 43.48" fill="#8fbbdb"></polygon><polygon points="139.91 121.28 52.88 123.92 52.88 65.9 139.91 61.94 139.91 121.28" fill="#0092c3"></polygon><g id="C.3"><path d="M83.53,95.45l2.24.71c-.34,1.25-.92,2.18-1.71,2.79-.8.61-1.81.91-3.04.91-1.52,0-2.77-.52-3.75-1.56s-1.47-2.46-1.47-4.26c0-1.91.49-3.39,1.48-4.44s2.28-1.58,3.88-1.58c1.4,0,2.54.41,3.41,1.24.52.49.91,1.19,1.17,2.11l-2.29.55c-.14-.59-.42-1.06-.85-1.41s-.95-.52-1.57-.52c-.85,0-1.54.3-2.07.91s-.79,1.6-.79,2.96c0,1.45.26,2.48.78,3.09.52.61,1.2.92,2.03.92.61,0,1.14-.2,1.59-.59s.76-1,.95-1.84Z" fill="#dde9f5"></path><path d="M87.74,99.66v-2.2h2.2v2.2h-2.2Z" fill="#dde9f5"></path><path d="M91.33,96.55l2.12-.26c.07.54.25.96.55,1.24.3.29.66.43,1.08.43.45,0,.83-.17,1.14-.52s.46-.81.46-1.39c0-.55-.15-.99-.45-1.31-.3-.32-.66-.48-1.09-.48-.28,0-.62.05-1.01.16l.24-1.79c.59.02,1.05-.11,1.36-.39s.47-.64.47-1.09c0-.39-.11-.69-.34-.92-.23-.23-.53-.34-.91-.34s-.7.13-.96.39c-.27.26-.43.64-.48,1.14l-2.02-.34c.14-.69.35-1.25.64-1.66s.68-.74,1.19-.98c.51-.24,1.08-.36,1.71-.36,1.08,0,1.94.34,2.59,1.03.54.56.8,1.2.8,1.91,0,1.01-.55,1.81-1.65,2.41.66.14,1.18.46,1.57.95.39.49.59,1.08.59,1.77,0,1.01-.37,1.86-1.1,2.57-.73.71-1.65,1.06-2.74,1.06-1.04,0-1.9-.3-2.58-.89-.68-.6-1.08-1.38-1.19-2.34Z" fill="#dde9f5"></path></g></svg> 