<?xml version="1.0" encoding="UTF-8"?> <svg xmlns="http://www.w3.org/2000/svg" id="MFC_1" viewBox="0 0 180 140"><polygon points="70.54 127.34 21.71 100.06 21.71 33.99 70.54 61.28 70.54 127.34" fill="#8d939e"></polygon><polygon points="156.71 110.11 70.54 127.34 70.54 61.28 156.71 44.04 156.71 110.11" fill="#767b85"></polygon><polygon points="21.71 33.99 107.88 16.76 156.71 44.04 70.54 61.28 21.71 33.99" fill="#b7bcc5"></polygon><g id="MFC.1"><path d="M92.32,95.26v-11.45l3.46-.74,2.08,7.37,2.05-8.25,3.47-.74v11.45l-2.15.46v-9.02l-2.27,9.5-2.23.47-2.27-8.53v9.02l-2.15.46Z" fill="#e7e7ea"></path><path d="M105.29,92.5v-11.45l7.85-1.67v1.94l-5.54,1.18v2.71l4.78-1.02v1.94l-4.78,1.02v4.87l-2.31.49Z" fill="#e7e7ea"></path><path d="M121.98,84.74l2.24.23c-.34,1.32-.92,2.37-1.71,3.15-.8.78-1.81,1.3-3.04,1.56-1.52.32-2.77.07-3.75-.76-.98-.83-1.47-2.15-1.47-3.95,0-1.91.49-3.49,1.48-4.75.98-1.26,2.28-2.07,3.88-2.41,1.4-.3,2.54-.13,3.41.52.52.38.91,1,1.17,1.86l-2.29,1.03c-.14-.57-.42-.97-.85-1.23-.43-.25-.95-.31-1.57-.18-.85.18-1.54.63-2.07,1.35s-.79,1.77-.79,3.13c0,1.45.26,2.42.78,2.93.52.5,1.2.67,2.03.49.61-.13,1.14-.44,1.59-.92.44-.48.76-1.17.95-2.05Z" fill="#e7e7ea"></path><path d="M125.79,88.14v-2.2l2.2-.47v2.2l-2.2.47Z" fill="#e7e7ea"></path><path d="M134.99,86.19l-2.2.47v-8.27c-.8.92-1.75,1.68-2.84,2.27v-1.99c.57-.31,1.2-.8,1.87-1.46.67-.67,1.13-1.37,1.38-2.13l1.78-.38v11.5Z" fill="#e7e7ea"></path></g></svg> 