<?xml version="1.0" encoding="UTF-8"?> <svg xmlns="http://www.w3.org/2000/svg" id="Gebaeude_G_2" viewBox="0 0 160 160"><rect x="57.67" y="43.58" width="15" height="51.92" fill="#8e195a"></rect><rect x="70.36" y="86.27" width="23.08" height="51.92" fill="#8e195a"></rect><rect x="74.98" y="12.42" width="15" height="9.46" fill="#b57393"></rect><rect x="74.98" y="21.88" width="15" height="51.7" fill="#8e195a"></rect><path d="M80.75,26.27v-4.62h-4.62c-.64,0-1.15-.52-1.15-1.15h0c0-.64-.52-1.15-1.15-1.15h-16.15v24.23h15v3.46l-24.23-1.15-6.92,50.77,25.38,1.15,3.46-11.54,23.01.08v5.77h23.14v-58.85l-35.77-7Z" fill="#b57393"></path><polygon points="66.9 149.73 41.52 148.58 41.52 96.65 66.9 97.81 66.9 149.73" fill="#8e195a"></polygon><rect x="93.37" y="92.11" width="23.14" height="51.7" fill="#8e195a"></rect><polygon points="70.36 138.19 66.9 149.73 66.88 97.91 70.32 86.27 70.36 138.19" fill="#76154b"></polygon><g id="G.2"><path d="M73.99,115.07v-1.93h4.98v4.56c-.48.47-1.19.88-2.11,1.24-.92.36-1.85.54-2.79.54-1.2,0-2.24-.25-3.13-.75-.89-.5-1.56-1.22-2.01-2.16-.45-.93-.67-1.95-.67-3.05,0-1.19.25-2.25.75-3.18.5-.93,1.23-1.64,2.2-2.13.73-.38,1.65-.57,2.74-.57,1.42,0,2.53.3,3.33.89.8.6,1.31,1.42,1.54,2.47l-2.3.43c-.16-.56-.46-1.01-.91-1.33-.45-.33-1-.49-1.67-.49-1.01,0-1.81.32-2.41.96-.6.64-.89,1.59-.89,2.85,0,1.36.3,2.38.91,3.06.6.68,1.4,1.02,2.38,1.02.48,0,.97-.09,1.46-.29.49-.19.9-.42,1.25-.69v-1.45h-2.65Z" fill="#e5cfdb"></path><path d="M81.09,119.28v-2.2h2.2v2.2h-2.2Z" fill="#e5cfdb"></path><path d="M92.48,117.25v2.04h-7.7c.08-.77.33-1.5.75-2.19.42-.69,1.24-1.61,2.47-2.75.99-.92,1.6-1.55,1.82-1.88.3-.45.45-.9.45-1.34,0-.49-.13-.87-.39-1.13-.26-.26-.63-.39-1.09-.39s-.82.14-1.09.41c-.27.28-.43.73-.47,1.38l-2.19-.22c.13-1.21.54-2.08,1.23-2.6.69-.53,1.55-.79,2.58-.79,1.13,0,2.02.3,2.66.91.65.61.97,1.37.97,2.27,0,.52-.09,1.01-.28,1.47-.19.47-.48.95-.88,1.46-.27.34-.75.83-1.44,1.46-.69.64-1.13,1.06-1.32,1.27-.19.21-.33.41-.45.61h4.36Z" fill="#e5cfdb"></path></g></svg> 