<?xml version="1.0" encoding="UTF-8"?> <svg xmlns="http://www.w3.org/2000/svg" id="Gebaeude_G_3" viewBox="0 0 160 160"><rect x="55.67" y="42.5" width="15" height="51.92" fill="#8e195a"></rect><rect x="68.36" y="85.19" width="23.08" height="51.92" fill="#8e195a"></rect><rect x="72.98" y="11.35" width="15" height="9.46" fill="#b57393"></rect><rect x="72.98" y="20.8" width="15" height="51.7" fill="#8e195a"></rect><path d="M78.75,25.19v-4.62h-4.62c-.64,0-1.15-.52-1.15-1.15h0c0-.64-.52-1.15-1.15-1.15h-16.15v24.23h15v3.46l-24.23-1.15-6.92,50.77,25.38,1.15,3.46-11.54,23.01.08v5.77h23.14v-58.85l-35.77-7Z" fill="#b57393"></path><polygon points="64.9 148.65 39.52 147.5 39.52 95.58 64.9 96.73 64.9 148.65" fill="#8e195a"></polygon><rect x="91.37" y="91.04" width="23.14" height="51.7" fill="#8e195a"></rect><polygon points="68.36 137.12 64.9 148.65 64.88 96.83 68.32 85.19 68.36 137.12" fill="#76154b"></polygon><g id="G.3"><path d="M72.89,113.94v-1.93h4.98v4.56c-.48.47-1.19.88-2.11,1.24-.92.36-1.85.54-2.79.54-1.2,0-2.24-.25-3.13-.75-.89-.5-1.56-1.22-2.01-2.16-.45-.93-.67-1.95-.67-3.05,0-1.19.25-2.25.75-3.18.5-.93,1.23-1.64,2.2-2.13.73-.38,1.65-.57,2.74-.57,1.42,0,2.53.3,3.33.89.8.6,1.31,1.42,1.54,2.47l-2.3.43c-.16-.56-.46-1.01-.91-1.33-.45-.33-1-.49-1.67-.49-1.01,0-1.81.32-2.41.96-.6.64-.89,1.59-.89,2.85,0,1.36.3,2.38.91,3.06.6.68,1.4,1.02,2.38,1.02.48,0,.97-.09,1.46-.29.49-.19.9-.42,1.25-.69v-1.45h-2.65Z" fill="#e5cfdb"></path><path d="M80,118.15v-2.2h2.2v2.2h-2.2Z" fill="#e5cfdb"></path><path d="M83.89,115.11l2.12-.26c.07.54.25.96.55,1.24.3.29.66.43,1.08.43.45,0,.83-.17,1.14-.52.31-.34.46-.81.46-1.39,0-.55-.15-.99-.45-1.31-.3-.32-.66-.48-1.09-.48-.28,0-.62.05-1.01.16l.24-1.79c.59.02,1.05-.11,1.36-.39s.47-.64.47-1.09c0-.39-.11-.69-.34-.92-.23-.23-.53-.34-.91-.34s-.7.13-.96.39c-.27.26-.43.64-.48,1.14l-2.02-.34c.14-.69.35-1.25.64-1.66.28-.41.68-.74,1.19-.98.51-.24,1.08-.36,1.71-.36,1.08,0,1.94.34,2.59,1.03.54.56.8,1.2.8,1.91,0,1.01-.55,1.81-1.65,2.41.66.14,1.18.46,1.57.95.39.49.59,1.08.59,1.77,0,1.01-.37,1.86-1.1,2.57-.73.71-1.65,1.06-2.74,1.06-1.04,0-1.9-.3-2.58-.89-.68-.6-1.08-1.38-1.19-2.34Z" fill="#e5cfdb"></path></g></svg> 