<?xml version="1.0" encoding="UTF-8"?> <svg xmlns="http://www.w3.org/2000/svg" id="Gebaeude_D_1" viewBox="0 0 95 100"><rect x="20" y="17.98" width="55" height="32.07" fill="#cad391"></rect><rect x="20" y="50.05" width="55" height="36.64" fill="#8c9b39"></rect><g id="D.1"><path d="M36.52,63.54h4.23c.95,0,1.68.07,2.18.22.67.2,1.25.55,1.73,1.05.48.51.84,1.12,1.09,1.86.25.73.38,1.63.38,2.71,0,.94-.12,1.76-.35,2.44-.29.83-.7,1.51-1.23,2.02-.4.39-.94.7-1.62.91-.51.16-1.19.24-2.05.24h-4.35v-11.45ZM38.83,65.48v7.59h1.73c.65,0,1.11-.04,1.4-.11.38-.09.69-.25.93-.48.25-.22.45-.59.61-1.11.16-.51.23-1.21.23-2.1s-.08-1.56-.23-2.04c-.16-.47-.38-.84-.66-1.11s-.64-.45-1.07-.54c-.32-.07-.96-.11-1.9-.11h-1.04Z" fill="#ecf0dc"></path><path d="M48.06,75v-2.2h2.2v2.2h-2.2Z" fill="#ecf0dc"></path><path d="M57.66,75h-2.2v-8.27c-.8.75-1.75,1.3-2.84,1.66v-1.99c.57-.19,1.2-.54,1.87-1.07s1.13-1.13,1.38-1.83h1.78v11.5Z" fill="#ecf0dc"></path></g></svg> 