<?xml version="1.0" encoding="UTF-8"?> <svg xmlns="http://www.w3.org/2000/svg" id="Mensa_B_59" viewBox="0 0 200 110"><polygon points="48.36 75.12 41.62 71.39 41.62 22.33 48.36 25.7 48.36 75.12" fill="#008a8b"></polygon><polygon points="78.69 70.63 74.2 68.02 74.2 18.97 78.69 21.21 78.69 70.63" fill="#009290"></polygon><polygon points="28.15 80.74 22.53 78.13 22.53 29.07 28.15 31.32 28.15 80.74" fill="#009290"></polygon><polygon points="42.75 91.97 23.65 82.06 23.65 32.44 42.75 41.43 42.75 91.97" fill="#008a8b"></polygon><polygon points="177.53 81.86 150.57 87.48 150.57 38.06 177.53 32.44 177.53 81.86" fill="#007172"></polygon><polygon points="37.13 27.95 32.64 26.83 22.53 29.07 28.15 31.32 23.65 32.44 42.75 41.43 28.15 44.8 31.52 47.04 47.24 43.68 56.23 48.17 73.07 44.8 83.18 50.41 132.6 40.31 138.22 42.55 152.82 39.18 150.57 38.06 177.53 32.44 140.46 12.23 107.89 18.97 98.91 14.47 74.2 18.97 78.69 21.21 58.47 25.7 49.49 21.21 41.62 22.33 48.36 25.7 37.13 27.95" fill="#63b4b8"></polygon><polygon points="132.6 89.73 83.18 99.83 83.18 50.41 132.6 40.31 132.6 89.73" fill="#007172"></polygon><polygon points="83.18 99.83 73.07 94.22 73.07 44.8 83.18 50.41 83.18 99.83" fill="#008a8b"></polygon><polygon points="56.23 97.59 73.07 94.22 73.07 44.8 56.23 48.17 56.23 97.59" fill="#007172"></polygon><polygon points="56.23 97.68 47.24 93.19 47.24 43.68 56.23 48.26 56.23 97.68" fill="#008a8b"></polygon><polygon points="31.52 96.56 47.24 93.19 47.24 43.68 31.52 47.04 31.52 96.56" fill="#007172"></polygon><polygon points="138.22 93.1 132.6 89.73 132.6 40.31 138.22 42.55 138.22 93.1" fill="#008a8b"></polygon><polygon points="138.22 93.03 152.82 89.66 152.82 39.18 138.22 42.55 138.22 93.03" fill="#007172"></polygon><polygon points="31.52 96.56 28.15 93.59 28.15 44.8 31.52 47.04 31.52 96.56" fill="#008a8b"></polygon><g id="Mensa"><path d="M87.66,68.93v-11.94l3.61-.77,2.17,7.68,2.14-8.6,3.62-.77v11.94l-2.24.48v-9.4l-2.37,9.9-2.32.49-2.36-8.89v9.4l-2.24.48Z" fill="#d1e5e8"></path><path d="M106.57,62.16l2.28-.1c-.29.9-.76,1.63-1.39,2.2-.63.57-1.42.96-2.37,1.16-1.5.32-2.62.07-3.34-.76-.57-.67-.85-1.6-.85-2.8,0-1.43.37-2.64,1.12-3.61.75-.97,1.7-1.58,2.84-1.82,1.29-.27,2.3-.06,3.04.63.74.69,1.1,1.92,1.07,3.68l-5.73,1.22c.02.68.2,1.16.55,1.47.35.3.79.4,1.32.28.36-.08.66-.24.9-.49.24-.25.43-.6.55-1.06ZM106.7,59.82c-.02-.66-.19-1.13-.51-1.4-.33-.28-.72-.36-1.19-.26-.5.11-.91.38-1.24.81-.33.43-.49.96-.48,1.58l3.42-.73Z" fill="#d1e5e8"></path><path d="M118.7,62.33l-2.29.49v-4.41c0-.93-.05-1.53-.15-1.78-.1-.25-.26-.43-.48-.54s-.48-.12-.79-.06c-.4.08-.75.27-1.07.55s-.53.62-.65,1c-.12.38-.18,1.06-.18,2.02v3.92l-2.29.49v-8.65l2.13-.45v1.27c.75-1.14,1.7-1.83,2.85-2.07.5-.11.97-.11,1.38-.02.42.09.73.26.95.49s.36.53.45.87c.08.34.13.84.13,1.51v5.37Z" fill="#d1e5e8"></path><path d="M120.22,59.54l2.3-.84c.1.42.3.72.59.89.3.17.72.19,1.25.08.59-.13,1.04-.33,1.34-.61.2-.19.3-.42.3-.67,0-.17-.05-.31-.16-.4-.11-.08-.37-.13-.77-.14-1.85-.01-3.02-.14-3.51-.37-.68-.32-1.03-.9-1.03-1.73,0-.75.3-1.44.89-2.08.59-.64,1.51-1.09,2.75-1.35,1.18-.25,2.06-.25,2.64.02.58.26.97.75,1.19,1.46l-2.16.86c-.09-.32-.27-.54-.53-.66s-.63-.14-1.1-.03c-.6.13-1.03.3-1.29.53-.17.16-.26.33-.26.52,0,.16.08.28.23.37.21.11.92.17,2.14.19,1.22.02,2.07.18,2.55.47.48.31.72.82.72,1.55,0,.79-.33,1.54-.99,2.26-.66.71-1.64,1.2-2.94,1.48-1.18.25-2.11.21-2.8-.12-.69-.33-1.14-.89-1.35-1.66Z" fill="#d1e5e8"></path><path d="M132.01,53.49l-2.08.07c.23-.89.64-1.59,1.2-2.11.57-.52,1.42-.9,2.54-1.14,1.02-.22,1.78-.26,2.28-.12.5.14.85.37,1.05.7.2.33.3.99.3,1.98l-.02,2.68c0,.76.04,1.31.11,1.66.07.35.21.7.41,1.07l-2.26.48c-.06-.14-.13-.35-.22-.63-.04-.13-.06-.21-.08-.25-.39.46-.81.84-1.25,1.12s-.92.48-1.42.59c-.89.19-1.59.1-2.1-.28-.51-.37-.77-.93-.77-1.67,0-.49.12-.95.35-1.38.23-.43.56-.79.98-1.09.42-.29,1.03-.6,1.82-.92,1.07-.43,1.81-.77,2.22-1.03v-.23c0-.44-.11-.73-.33-.87-.22-.14-.63-.15-1.23-.02-.41.09-.72.23-.95.44s-.41.53-.55.96ZM135.07,54.7c-.29.16-.76.38-1.39.65-.63.27-1.05.49-1.25.66-.3.27-.45.58-.45.9s.12.57.36.75c.24.18.54.23.91.16.41-.09.81-.31,1.18-.66.28-.26.46-.56.55-.87.06-.21.09-.59.09-1.13v-.46Z" fill="#d1e5e8"></path></g><g id="B.59"><path d="M94.49,76.28l4.58-.98c.91-.19,1.58-.3,2.03-.32.45-.02.84.05,1.2.22s.64.42.88.77c.23.35.35.77.35,1.26,0,.54-.14,1.06-.43,1.57-.29.51-.68.93-1.18,1.26.7.05,1.23.29,1.61.69.37.41.56.94.56,1.61,0,.52-.12,1.05-.36,1.6-.24.54-.57,1.01-.99,1.39-.42.38-.94.68-1.55.88-.39.12-1.32.35-2.79.68l-3.9.84v-11.45ZM96.8,77.69v2.65l1.52-.33c.9-.19,1.46-.33,1.68-.4.4-.13.71-.33.93-.61.23-.28.34-.6.34-.97s-.1-.62-.29-.8c-.2-.18-.49-.25-.87-.22-.23.02-.89.15-1.98.38l-1.33.29ZM96.8,82.25v3.06l2.14-.46c.83-.18,1.36-.32,1.59-.41.34-.14.62-.35.84-.64.22-.29.32-.64.32-1.04,0-.34-.08-.62-.25-.82-.17-.2-.41-.33-.72-.37-.31-.04-1,.05-2.05.28l-1.87.4Z" fill="#d1e5e8"></path><path d="M106.02,85.26v-2.2l2.2-.47v2.2l-2.2.47Z" fill="#d1e5e8"></path><path d="M110.13,81.35l2.19-.54c.06.49.25.85.55,1.1.31.24.66.34,1.06.28.46-.07.85-.31,1.16-.73.32-.42.48-1,.48-1.75,0-.7-.16-1.21-.47-1.51-.32-.31-.73-.42-1.23-.35-.63.09-1.2.45-1.7,1.08h-1.78s1.12-6.12,1.12-6.12l5.8-.84v2.05l-4.14.6-.34,2c.49-.32.99-.51,1.5-.58.97-.14,1.8.09,2.48.7.68.61,1.02,1.48,1.02,2.61,0,.94-.27,1.82-.82,2.64-.75,1.12-1.78,1.77-3.1,1.97-1.06.15-1.92,0-2.59-.48-.67-.47-1.07-1.18-1.2-2.12Z" fill="#d1e5e8"></path><path d="M120.17,80.05l2.12-.72c.05.42.19.71.41.87.22.16.51.2.87.11.45-.1.84-.4,1.16-.89.32-.49.52-1.4.61-2.73-.55.77-1.24,1.25-2.07,1.44-.9.21-1.68.04-2.33-.5-.65-.54-.98-1.37-.98-2.49s.34-2.18,1.04-3.05c.69-.87,1.57-1.43,2.64-1.68,1.16-.27,2.11-.04,2.86.69.74.73,1.12,2.12,1.12,4.18s-.39,3.69-1.16,4.8c-.78,1.11-1.79,1.8-3.03,2.09-.9.21-1.62.14-2.17-.21-.55-.35-.91-.98-1.06-1.89ZM125.14,74.11c0-.71-.16-1.22-.49-1.54-.33-.32-.7-.42-1.13-.33s-.74.33-1.01.71c-.27.38-.4.94-.4,1.67s.15,1.25.44,1.53c.29.28.66.37,1.09.27s.78-.35,1.07-.75c.29-.4.43-.92.43-1.57Z" fill="#d1e5e8"></path></g></svg> 