<?xml version="1.0" encoding="UTF-8"?> <svg xmlns="http://www.w3.org/2000/svg" id="Gebaeude_C_2a" viewBox="0 0 90 150"><rect x="20.9" y="13.98" width="48" height="49.66" fill="#8fbbdb"></rect><rect x="20.9" y="63.64" width="48" height="74.48" fill="#0092c3"></rect><g id="C.2a"><path d="M36.62,101.09l2.24.71c-.34,1.25-.92,2.18-1.71,2.79-.8.61-1.81.91-3.04.91-1.52,0-2.77-.52-3.75-1.56s-1.47-2.46-1.47-4.26c0-1.91.49-3.39,1.48-4.44s2.28-1.58,3.88-1.58c1.4,0,2.54.41,3.41,1.24.52.49.91,1.19,1.17,2.11l-2.29.55c-.14-.59-.42-1.06-.85-1.41s-.95-.52-1.57-.52c-.85,0-1.54.3-2.07.91s-.79,1.6-.79,2.96c0,1.45.26,2.48.78,3.09.52.61,1.2.92,2.03.92.61,0,1.14-.2,1.59-.59s.76-1,.95-1.84Z" fill="#dde9f5"></path><path d="M40.84,105.3v-2.2h2.2v2.2h-2.2Z" fill="#dde9f5"></path><path d="M52.23,103.26v2.04h-7.7c.08-.77.33-1.5.75-2.19.42-.69,1.24-1.61,2.47-2.75.99-.92,1.6-1.55,1.82-1.88.3-.45.45-.9.45-1.34,0-.49-.13-.87-.39-1.13-.26-.26-.63-.39-1.09-.39s-.82.14-1.09.41c-.27.28-.43.73-.47,1.38l-2.19-.22c.13-1.21.54-2.08,1.23-2.6.69-.53,1.55-.79,2.58-.79,1.13,0,2.02.3,2.66.91s.97,1.37.97,2.27c0,.52-.09,1.01-.28,1.47-.18.47-.48.95-.88,1.46-.27.34-.75.83-1.44,1.46-.69.64-1.13,1.06-1.32,1.27-.18.21-.33.41-.45.61h4.36Z" fill="#dde9f5"></path><path d="M55.98,99.35l-1.99-.36c.22-.8.61-1.4,1.16-1.78.55-.39,1.36-.58,2.44-.58.98,0,1.71.12,2.19.35.48.23.82.53,1.01.88.2.36.29,1.01.29,1.96l-.02,2.56c0,.73.04,1.27.11,1.61.07.35.2.72.39,1.11h-2.17c-.06-.15-.13-.36-.21-.65-.04-.13-.06-.22-.08-.26-.38.36-.78.64-1.2.82-.43.18-.88.27-1.37.27-.85,0-1.53-.23-2.02-.7-.49-.46-.74-1.05-.74-1.76,0-.47.11-.89.34-1.25.22-.37.54-.65.94-.84.4-.2.99-.37,1.75-.51,1.03-.19,1.74-.37,2.13-.54v-.22c0-.42-.1-.72-.31-.9-.21-.18-.6-.27-1.18-.27-.39,0-.7.08-.91.23-.22.15-.4.42-.53.81ZM58.91,101.13c-.28.09-.73.21-1.34.34-.61.13-1.01.26-1.2.38-.29.2-.43.46-.43.77s.11.57.34.8c.23.22.52.34.88.34.4,0,.77-.13,1.13-.39.27-.2.44-.44.52-.73.06-.19.09-.54.09-1.07v-.44Z" fill="#dde9f5"></path></g></svg> 