<?xml version="1.0" encoding="UTF-8"?> <svg xmlns="http://www.w3.org/2000/svg" id="Gebaeude_C_1" viewBox="0 0 170 140"><rect x="114.59" y="18.41" width="40" height="15.71" fill="#8fbbdb"></rect><rect x="114.59" y="34.12" width="40" height="47.14" fill="#0078a0"></rect><rect x="14.59" y="34.12" width="134.29" height="24.29" fill="#8fbbdb"></rect><rect x="14.59" y="58.41" width="134.29" height="64.29" fill="#0092c3"></rect><g id="C.1"><path d="M79.17,91.67l2.24.71c-.34,1.25-.92,2.18-1.71,2.79-.8.61-1.81.91-3.04.91-1.52,0-2.77-.52-3.75-1.56s-1.47-2.46-1.47-4.26c0-1.91.49-3.39,1.48-4.44s2.28-1.58,3.88-1.58c1.4,0,2.54.41,3.41,1.24.52.49.91,1.19,1.17,2.11l-2.29.55c-.14-.59-.42-1.06-.85-1.41s-.95-.52-1.57-.52c-.85,0-1.54.3-2.07.91s-.79,1.6-.79,2.96c0,1.45.26,2.48.78,3.09.52.61,1.2.92,2.03.92.61,0,1.14-.2,1.59-.59s.76-1,.95-1.84Z" fill="#dde9f5"></path><path d="M83.39,95.88v-2.2h2.2v2.2h-2.2Z" fill="#dde9f5"></path><path d="M92.98,95.88h-2.2v-8.27c-.8.75-1.75,1.3-2.84,1.66v-1.99c.57-.19,1.2-.54,1.87-1.07s1.13-1.13,1.38-1.83h1.78v11.5Z" fill="#dde9f5"></path></g></svg> 