<?xml version="1.0" encoding="UTF-8"?> <svg xmlns="http://www.w3.org/2000/svg" id="Gebaeude_F_6" viewBox="0 0 190 100"><polygon points="15.05 17 15.05 46.47 175.05 46.47 175.05 22.26 66.63 15.94 66.63 19.1 15.05 17" fill="#96b98d"></polygon><rect x="15.05" y="46.47" width="160" height="40" fill="#44904a"></rect><g id="F.6"><path d="M86.26,72.48v-11.57h7.93v1.96h-5.6v2.74h4.83v1.96h-4.83v4.92h-2.34Z" fill="#dde7da"></path><path d="M94.31,72.48v-2.22h2.22v2.22h-2.22Z" fill="#dde7da"></path><path d="M105.85,63.74l-2.15.24c-.05-.44-.19-.77-.41-.98-.22-.21-.51-.32-.86-.32-.47,0-.86.21-1.19.63-.32.42-.53,1.3-.61,2.63.55-.65,1.24-.98,2.06-.98.93,0,1.72.35,2.38,1.06.66.71.99,1.62.99,2.73,0,1.18-.35,2.13-1.04,2.85-.7.72-1.59,1.07-2.68,1.07-1.17,0-2.13-.45-2.88-1.36-.75-.91-1.13-2.4-1.13-4.46s.39-3.65,1.18-4.59,1.8-1.41,3.05-1.41c.88,0,1.61.25,2.18.74s.94,1.21,1.1,2.14ZM100.82,68.58c0,.72.17,1.28.5,1.67.33.39.71.59,1.14.59s.75-.16,1.03-.48c.27-.32.41-.85.41-1.58s-.15-1.3-.44-1.65-.66-.53-1.11-.53-.79.17-1.08.5c-.29.33-.44.83-.44,1.48Z" fill="#dde7da"></path></g></svg> 