<?xml version="1.0" encoding="UTF-8"?> <svg xmlns="http://www.w3.org/2000/svg" id="Gebaeude_E_5" viewBox="0 0 130 100"><rect x="20.08" y="18.1" width="90" height="20.2" fill="#8197b9"></rect><rect x="20.08" y="38.31" width="90" height="44.08" fill="#0e5f8f"></rect><g id="E.5"><path d="M54.22,65.66v-11.45h8.49v1.94h-6.18v2.54h5.75v1.93h-5.75v3.12h6.4v1.93h-8.71Z" fill="#d6dae7"></path><path d="M64.88,65.66v-2.2h2.2v2.2h-2.2Z" fill="#d6dae7"></path><path d="M68.88,62.72l2.19-.23c.06.5.25.89.55,1.18.31.29.66.43,1.06.43.46,0,.85-.19,1.16-.56.32-.37.48-.93.48-1.68,0-.7-.16-1.23-.47-1.58-.32-.35-.73-.53-1.23-.53-.63,0-1.2.28-1.7.84l-1.78-.26,1.12-5.96h5.8v2.05h-4.14l-.34,1.95c.49-.24.99-.37,1.5-.37.97,0,1.8.35,2.48,1.06.68.71,1.02,1.63,1.02,2.76,0,.94-.27,1.78-.82,2.52-.75,1.01-1.78,1.52-3.1,1.52-1.06,0-1.92-.28-2.59-.85-.67-.57-1.07-1.33-1.2-2.29Z" fill="#d6dae7"></path></g></svg> 