<?xml version="1.0" encoding="UTF-8"?> <svg xmlns="http://www.w3.org/2000/svg" id="Gebaeude_C_2b" viewBox="0 0 90 150"><rect x="20.73" y="16" width="48" height="48" fill="#8fbbdb"></rect><rect x="20.73" y="64" width="48" height="72" fill="#0092c3"></rect><g id="C.2b"><path d="M35.32,101.49l2.24.71c-.34,1.25-.92,2.18-1.71,2.79-.8.61-1.81.91-3.04.91-1.52,0-2.77-.52-3.75-1.56s-1.47-2.46-1.47-4.26c0-1.91.49-3.39,1.48-4.44s2.28-1.58,3.88-1.58c1.4,0,2.54.41,3.41,1.24.52.49.91,1.19,1.17,2.11l-2.29.55c-.14-.59-.42-1.06-.85-1.41s-.95-.52-1.57-.52c-.85,0-1.54.3-2.07.91s-.79,1.6-.79,2.96c0,1.45.26,2.48.78,3.09.52.61,1.2.92,2.03.92.61,0,1.14-.2,1.59-.59s.76-1,.95-1.84Z" fill="#dde9f5"></path><path d="M39.53,105.7v-2.2h2.2v2.2h-2.2Z" fill="#dde9f5"></path><path d="M51.85,103.68v2.04h-7.7c.08-.77.33-1.5.75-2.19.42-.69,1.24-1.61,2.47-2.75.99-.92,1.6-1.55,1.82-1.88.3-.45.45-.9.45-1.34,0-.49-.13-.87-.39-1.13-.26-.26-.63-.39-1.09-.39s-.82.14-1.09.41c-.27.28-.43.73-.47,1.38l-2.19-.22c.13-1.21.54-2.08,1.23-2.6.69-.53,1.55-.79,2.58-.79,1.13,0,2.02.3,2.66.91s.97,1.37.97,2.27c0,.52-.09,1.01-.28,1.47-.18.47-.48.95-.88,1.46-.27.34-.75.83-1.44,1.46-.69.64-1.13,1.06-1.32,1.27-.18.21-.33.41-.45.61h4.36Z" fill="#dde9f5"></path><path d="M53.88,105.7v-11.45h2.2v4.12c.68-.77,1.48-1.16,2.41-1.16,1.01,0,1.85.37,2.51,1.1.66.73.99,1.78.99,3.15s-.34,2.51-1.01,3.27c-.67.77-1.49,1.15-2.46,1.15-.47,0-.94-.12-1.4-.36s-.86-.59-1.19-1.05v1.22h-2.04ZM56.06,101.38c0,.86.14,1.5.41,1.91.38.58.89.88,1.52.88.48,0,.9-.21,1.24-.62.34-.41.51-1.07.51-1.96,0-.95-.17-1.63-.52-2.05-.34-.42-.78-.63-1.32-.63s-.96.2-1.31.61c-.35.41-.52,1.03-.52,1.86Z" fill="#dde9f5"></path></g></svg> 