<?xml version="1.0" encoding="UTF-8"?> <svg xmlns="http://www.w3.org/2000/svg" id="Gebaeude_E_2" viewBox="0 0 160 120"><rect x="19.47" y="16.01" width="120" height="24.76" fill="#8197b9"></rect><rect x="19.47" y="40.77" width="120" height="64.76" fill="#0e5f8f"></rect><g id="E.2"><path d="M70.41,86.49v-11.45h8.49v1.94h-6.18v2.54h5.75v1.93h-5.75v3.12h6.4v1.93h-8.71Z" fill="#d6dae7"></path><path d="M81.06,86.49v-2.2h2.2v2.2h-2.2Z" fill="#d6dae7"></path><path d="M92.46,84.46v2.04h-7.7c.08-.77.33-1.5.75-2.19.42-.69,1.24-1.61,2.47-2.75.99-.92,1.6-1.55,1.82-1.88.3-.45.45-.9.45-1.34,0-.49-.13-.87-.39-1.13-.26-.26-.63-.39-1.09-.39s-.82.14-1.09.41c-.27.28-.43.73-.47,1.38l-2.19-.22c.13-1.21.54-2.08,1.23-2.6.69-.53,1.55-.79,2.58-.79,1.13,0,2.02.3,2.66.91.65.61.97,1.37.97,2.27,0,.52-.09,1.01-.28,1.47-.19.47-.48.95-.88,1.46-.27.34-.75.83-1.44,1.46-.69.64-1.13,1.06-1.32,1.27-.19.21-.33.41-.45.61h4.36Z" fill="#d6dae7"></path></g><g id="Bauforum"><path d="M47.41,58.98h3.9c.77,0,1.35.03,1.73.1s.72.2,1.02.4.55.48.75.82.3.72.3,1.14c0,.46-.12.88-.37,1.26s-.58.67-1,.86c.6.17,1.05.47,1.37.89s.48.91.48,1.47c0,.44-.1.88-.31,1.3s-.49.75-.85,1.01-.8.4-1.32.46c-.33.04-1.12.06-2.38.07h-3.32v-9.76ZM49.38,60.6v2.26h1.29c.77,0,1.25-.01,1.43-.03.34-.04.6-.16.8-.35s.29-.45.29-.76-.08-.55-.25-.74-.41-.3-.74-.34c-.2-.02-.76-.03-1.69-.03h-1.13ZM49.38,64.49v2.61h1.83c.71,0,1.16-.02,1.35-.06.29-.05.53-.18.72-.39s.28-.48.28-.83c0-.29-.07-.54-.21-.75s-.35-.35-.62-.45-.85-.14-1.75-.14h-1.59Z" fill="#d6dae7"></path><path d="M58.64,63.83l-1.7-.31c.19-.68.52-1.19.99-1.52s1.16-.49,2.08-.49c.83,0,1.46.1,1.87.3s.7.45.86.75.25.86.25,1.67l-.02,2.18c0,.62.03,1.08.09,1.38s.17.61.34.95h-1.85c-.05-.12-.11-.31-.18-.55-.03-.11-.05-.18-.07-.22-.32.31-.66.54-1.03.7s-.75.23-1.17.23c-.73,0-1.3-.2-1.72-.59s-.63-.89-.63-1.5c0-.4.1-.76.29-1.07s.46-.55.8-.72.84-.31,1.49-.44c.87-.16,1.48-.32,1.82-.46v-.19c0-.36-.09-.62-.27-.77s-.51-.23-1.01-.23c-.33,0-.59.07-.78.2s-.34.36-.45.69ZM61.14,65.35c-.24.08-.62.18-1.14.29s-.86.22-1.02.33c-.24.17-.37.39-.37.66s.1.49.29.68.44.29.75.29c.34,0,.66-.11.97-.33.23-.17.38-.38.45-.62.05-.16.07-.46.07-.91v-.37Z" fill="#d6dae7"></path><path d="M69.48,68.74v-1.06c-.26.38-.6.67-1.02.89s-.86.33-1.33.33-.9-.1-1.28-.31-.65-.5-.82-.88-.25-.9-.25-1.57v-4.48h1.87v3.25c0,.99.03,1.6.1,1.83s.19.4.38.53.41.2.69.2c.32,0,.61-.09.86-.26s.43-.39.52-.65.14-.9.14-1.91v-2.98h1.87v7.07h-1.74Z" fill="#d6dae7"></path><path d="M73.25,61.79h1.04v-.53c0-.6.06-1.04.19-1.33s.36-.53.7-.72.77-.28,1.29-.28,1.05.08,1.57.24l-.25,1.31c-.3-.07-.58-.11-.86-.11s-.47.06-.58.19-.18.37-.18.73v.5h1.4v1.47h-1.4v5.6h-1.87v-5.6h-1.04v-1.47Z" fill="#d6dae7"></path><path d="M78.18,65.23c0-.62.15-1.22.46-1.81s.74-1.03,1.3-1.33,1.19-.46,1.88-.46c1.07,0,1.95.35,2.63,1.04s1.03,1.57,1.03,2.63-.35,1.96-1.04,2.66c-.69.7-1.56,1.06-2.61,1.06-.65,0-1.27-.15-1.86-.44-.59-.29-1.04-.72-1.34-1.29s-.46-1.26-.46-2.07ZM80.1,65.33c0,.7.17,1.24.5,1.61s.74.56,1.23.56.9-.19,1.23-.56.5-.91.5-1.63-.17-1.23-.5-1.6-.74-.56-1.23-.56-.9.19-1.23.56-.5.91-.5,1.61Z" fill="#d6dae7"></path><path d="M88.74,68.87h-1.87v-7.07h1.74v1.01c.3-.48.57-.79.8-.94s.51-.23.81-.23c.43,0,.84.12,1.23.35l-.58,1.63c-.32-.2-.61-.31-.88-.31s-.48.07-.67.22-.33.4-.43.78-.16,1.17-.16,2.37v2.18Z" fill="#d6dae7"></path><path d="M96.91,68.87v-1.06c-.26.38-.6.67-1.02.89s-.86.33-1.33.33-.9-.1-1.28-.31-.65-.5-.82-.88-.25-.9-.25-1.57v-4.48h1.87v3.25c0,.99.03,1.6.1,1.83s.19.4.38.53.41.2.69.2c.32,0,.61-.09.86-.26s.43-.39.52-.65.14-.9.14-1.91v-2.98h1.87v7.07h-1.74Z" fill="#d6dae7"></path><path d="M100.45,61.79h1.73v.97c.62-.75,1.35-1.13,2.2-1.13.45,0,.85.09,1.18.28s.61.47.82.85c.31-.38.65-.66,1.01-.85s.74-.28,1.15-.28c.52,0,.96.11,1.32.32s.63.52.81.93c.13.3.19.79.19,1.47v4.52h-1.87v-4.04c0-.7-.06-1.15-.19-1.36-.17-.27-.44-.4-.8-.4-.26,0-.51.08-.74.24s-.4.39-.5.7-.15.8-.15,1.46v3.4h-1.87v-3.88c0-.69-.03-1.13-.1-1.33s-.17-.35-.31-.45-.33-.15-.57-.15c-.29,0-.55.08-.78.23s-.4.38-.5.67-.15.78-.15,1.46v3.44h-1.87v-7.07Z" fill="#d6dae7"></path></g></svg> 