<?xml version="1.0" encoding="UTF-8"?> <svg xmlns="http://www.w3.org/2000/svg" id="Gebaeude_F_2" viewBox="0 0 80 90"><rect x="14.8" y="11.68" width="50" height="15.38" fill="#96b98d"></rect><rect x="14.8" y="27.07" width="50" height="51.92" fill="#44904a"></rect><g id="F.2"><path d="M30.25,59.05v-11.45h7.85v1.94h-5.54v2.71h4.78v1.94h-4.78v4.87h-2.31Z" fill="#dde7da"></path><path d="M38.22,59.05v-2.2h2.2v2.2h-2.2Z" fill="#dde7da"></path><path d="M49.61,57.01v2.04h-7.7c.08-.77.33-1.5.75-2.19.42-.69,1.24-1.61,2.47-2.75.99-.92,1.6-1.55,1.82-1.88.3-.45.45-.9.45-1.34,0-.49-.13-.87-.39-1.13-.26-.26-.63-.39-1.09-.39s-.82.14-1.09.41c-.27.28-.43.73-.47,1.38l-2.19-.22c.13-1.21.54-2.08,1.23-2.6.69-.53,1.55-.79,2.58-.79,1.13,0,2.02.3,2.66.91s.97,1.37.97,2.27c0,.52-.09,1.01-.28,1.47-.18.47-.48.95-.88,1.46-.27.34-.75.83-1.44,1.46-.69.64-1.13,1.06-1.32,1.27-.18.21-.33.41-.45.61h4.36Z" fill="#dde7da"></path></g></svg> 