<?xml version="1.0" encoding="UTF-8"?> <svg xmlns="http://www.w3.org/2000/svg" id="Gebaeude_D_4" viewBox="0 0 170 160"><polygon points="149.94 46.24 78.92 46.24 78.92 91.98 19.94 91.98 19.94 23.37 94.57 25.77 94.57 22.16 149.94 22.16 149.94 46.24" fill="#cad391"></polygon><rect x="19.94" y="91.98" width="58.98" height="52.96" fill="#8c9b39"></rect><rect x="78.92" y="46.24" width="71.02" height="52.96" fill="#8c9b39"></rect><g id="D.4"><path d="M38.18,112.7h4.23c.95,0,1.68.07,2.18.22.67.2,1.25.55,1.73,1.05.48.51.84,1.12,1.09,1.86.25.73.38,1.63.38,2.71,0,.94-.12,1.76-.35,2.44-.29.83-.7,1.51-1.23,2.02-.4.39-.94.7-1.62.91-.51.16-1.19.24-2.05.24h-4.35v-11.45ZM40.49,114.64v7.59h1.73c.65,0,1.11-.04,1.4-.11.38-.09.69-.25.93-.48.25-.22.45-.59.61-1.11.16-.51.23-1.21.23-2.1s-.08-1.56-.23-2.04c-.16-.47-.38-.84-.66-1.11s-.64-.45-1.07-.54c-.32-.07-.96-.11-1.9-.11h-1.04Z" fill="#ecf0dc"></path><path d="M49.73,124.15v-2.2h2.2v2.2h-2.2Z" fill="#ecf0dc"></path><path d="M58.01,124.15v-2.3h-4.69v-1.92l4.97-7.27h1.84v7.27h1.42v1.93h-1.42v2.3h-2.12ZM58.01,119.92v-3.91l-2.63,3.91h2.63Z" fill="#ecf0dc"></path></g></svg> 