<?xml version="1.0" encoding="UTF-8"?> <svg xmlns="http://www.w3.org/2000/svg" id="Gebaeude_F_7" viewBox="0 0 170 100"><rect x="14.48" y="33.91" width="48.73" height="54.04" fill="#38783d"></rect><polyline points="154.48 33.02 154.48 22.46 14.48 13.21 14.48 33.91 63.21 33.91 63.21 50.19 112.21 50.19 112.21 36.99 154.48 33.02" fill="#96b98d"></polyline><polygon points="154.48 83.21 112.21 87.95 112.21 36.99 154.48 33.02 154.48 83.21" fill="#337342"></polygon><rect x="63.21" y="50.19" width="49" height="37.75" fill="#409253"></rect><g id="F.7"><path d="M77.82,75.05v-11.45h7.85v1.94h-5.54v2.71h4.78v1.94h-4.78v4.87h-2.31Z" fill="#dde7da"></path><path d="M85.79,75.05v-2.2h2.2v2.2h-2.2Z" fill="#dde7da"></path><path d="M89.76,65.79v-2.04h7.51v1.59c-.62.61-1.25,1.48-1.89,2.62s-1.13,2.35-1.46,3.64c-.34,1.28-.5,2.43-.5,3.44h-2.12c.04-1.58.36-3.2.98-4.84.62-1.65,1.44-3.12,2.47-4.41h-4.99Z" fill="#dde7da"></path></g></svg> 