<?xml version="1.0" encoding="UTF-8"?> <svg xmlns="http://www.w3.org/2000/svg" id="MFC_7" viewBox="0 0 180 140"><polygon points="57.05 126.08 26.99 110.26 26.99 37.48 57.05 53.3 57.05 126.08" fill="#8d939e"></polygon><polygon points="151.99 107.1 57.05 126.08 57.05 53.3 151.99 34.31 151.99 107.1" fill="#767b85"></polygon><polygon points="26.99 37.48 121.93 18.49 151.99 34.31 57.05 53.3 26.99 37.48" fill="#b7bcc5"></polygon><g id="MFC.7"><path d="M80.71,91.06v-11.45l3.46-.74,2.08,7.37,2.05-8.25,3.47-.74v11.45l-2.15.46v-9.02l-2.27,9.5-2.23.47-2.27-8.53v9.02l-2.15.46Z" fill="#e7e7ea"></path><path d="M93.69,88.3v-11.45l7.85-1.67v1.94l-5.54,1.18v2.71l4.78-1.02v1.94l-4.78,1.02v4.87l-2.31.49Z" fill="#e7e7ea"></path><path d="M110.38,80.54l2.24.23c-.34,1.32-.92,2.37-1.71,3.15-.8.78-1.81,1.3-3.04,1.56-1.52.32-2.77.07-3.75-.76-.98-.83-1.47-2.15-1.47-3.95,0-1.91.49-3.49,1.48-4.76s2.28-2.07,3.88-2.41c1.4-.3,2.54-.13,3.41.52.52.38.91,1,1.17,1.86l-2.29,1.03c-.14-.56-.42-.97-.85-1.23-.43-.25-.95-.31-1.57-.18-.85.18-1.54.63-2.07,1.35-.53.72-.79,1.76-.79,3.13,0,1.45.26,2.42.78,2.93.52.5,1.2.67,2.03.49.61-.13,1.14-.44,1.59-.92.44-.48.76-1.17.95-2.05Z" fill="#e7e7ea"></path><path d="M114.19,83.94v-2.2l2.2-.47v2.2l-2.2.47Z" fill="#e7e7ea"></path><path d="M117.76,73.92v-2.04l7.51-1.6v1.59c-.62.74-1.25,1.75-1.89,3.03s-1.13,2.59-1.46,3.95-.5,2.54-.5,3.55l-2.12.45c.04-1.59.36-3.28.98-5.05.62-1.78,1.44-3.42,2.47-4.94l-4.99,1.06Z" fill="#e7e7ea"></path></g></svg> 