<?xml version="1.0" encoding="UTF-8"?> <svg xmlns="http://www.w3.org/2000/svg" id="Gebaeude_E_3" viewBox="0 0 120 190"><rect x="22.36" y="13.68" width="75" height="93.37" fill="#8197b9"></rect><rect x="22.36" y="107.05" width="75" height="70.41" fill="#0e5f8f"></rect><g id="E.3"><path d="M49.22,148.94v-11.45h8.49v1.94h-6.18v2.54h5.75v1.93h-5.75v3.12h6.4v1.93h-8.71Z" fill="#d6dae7"></path><path d="M59.87,148.94v-2.2h2.2v2.2h-2.2Z" fill="#d6dae7"></path><path d="M63.77,145.9l2.12-.26c.07.54.25.96.55,1.24.3.29.66.43,1.08.43.45,0,.83-.17,1.14-.52.31-.34.46-.81.46-1.39,0-.55-.15-.99-.45-1.31-.3-.32-.66-.48-1.09-.48-.28,0-.62.05-1.01.16l.24-1.79c.59.02,1.05-.11,1.36-.39s.47-.64.47-1.09c0-.39-.11-.69-.34-.92-.23-.23-.53-.34-.91-.34s-.7.13-.96.39c-.27.26-.43.64-.48,1.14l-2.02-.34c.14-.69.35-1.25.64-1.66.28-.41.68-.74,1.19-.98.51-.24,1.08-.36,1.71-.36,1.08,0,1.94.34,2.59,1.03.54.56.8,1.2.8,1.91,0,1.01-.55,1.81-1.65,2.41.66.14,1.18.46,1.57.95.39.49.59,1.08.59,1.77,0,1.01-.37,1.86-1.1,2.57-.73.71-1.65,1.06-2.74,1.06-1.04,0-1.9-.3-2.58-.89-.68-.6-1.08-1.38-1.19-2.34Z" fill="#d6dae7"></path></g></svg> 