<?xml version="1.0" encoding="UTF-8"?> <svg xmlns="http://www.w3.org/2000/svg" id="Gebaeude_D_2" viewBox="0 0 110 160"><rect x="60.12" y="22.95" width="6.51" height="91.16" fill="#8c9b39"></rect><rect x="19.42" y="22.95" width="22.79" height="91.16" fill="#8c9b39"></rect><rect x="35.7" y="55.5" width="53.72" height="92.79" fill="#8c9b39"></rect><polygon points="60.12 32.71 60.12 22.95 66.63 22.95 66.63 14.81 19.42 14.81 19.42 22.95 42.21 22.95 42.21 32.71 35.7 32.71 35.7 55.5 89.42 55.5 89.42 32.71 60.12 32.71" fill="#cad391"></polygon><g id="D.2"><path d="M50.59,91.82h4.23c.95,0,1.68.07,2.18.22.67.2,1.25.55,1.73,1.05.48.51.84,1.12,1.09,1.86.25.73.38,1.63.38,2.71,0,.94-.12,1.76-.35,2.44-.29.83-.7,1.51-1.23,2.02-.4.39-.94.7-1.62.91-.51.16-1.19.24-2.05.24h-4.35v-11.45ZM52.9,93.76v7.59h1.73c.65,0,1.11-.04,1.4-.11.38-.09.69-.25.93-.48.25-.22.45-.59.61-1.11.16-.51.23-1.21.23-2.1s-.08-1.56-.23-2.04c-.16-.47-.38-.84-.66-1.11s-.64-.45-1.07-.54c-.32-.07-.96-.11-1.9-.11h-1.04Z" fill="#ecf0dc"></path><path d="M62.14,103.27v-2.2h2.2v2.2h-2.2Z" fill="#ecf0dc"></path><path d="M73.53,101.23v2.04h-7.7c.08-.77.33-1.5.75-2.19.42-.69,1.24-1.61,2.47-2.75.99-.92,1.6-1.55,1.82-1.88.3-.45.45-.9.45-1.34,0-.49-.13-.87-.39-1.13-.26-.26-.63-.39-1.09-.39s-.82.14-1.09.41c-.27.28-.43.73-.47,1.38l-2.19-.22c.13-1.21.54-2.08,1.23-2.6.69-.53,1.55-.79,2.58-.79,1.13,0,2.02.3,2.66.91s.97,1.37.97,2.27c0,.52-.09,1.01-.28,1.47-.18.47-.48.95-.88,1.46-.27.34-.75.83-1.44,1.46-.69.64-1.13,1.06-1.32,1.27-.18.21-.33.41-.45.61h4.36Z" fill="#ecf0dc"></path></g></svg> 