<?xml version="1.0" encoding="UTF-8"?> <svg xmlns="http://www.w3.org/2000/svg" id="Bibliothek_B_60" viewBox="0 0 180 120"><polygon points="159.83 92.56 105.78 104.86 105.78 53.69 159.83 42.6 159.83 92.56" fill="#007172"></polygon><polygon points="19.83 80.64 74.31 110.91 74.31 60.96 19.86 29.47 19.83 80.64" fill="#008a8b"></polygon><polygon points="159.83 42.6 104.15 11.13 19.84 29.48 74.31 60.95 96.1 56.11 99.73 58.53 109.41 56.11 105.78 53.69 159.83 42.6" fill="#5ab2b4"></polygon><polygon points="99.73 108.49 96.1 106.07 96.1 56.11 99.73 58.53 99.73 108.49" fill="#008a8b"></polygon><polygon points="96.1 106.07 74.31 110.91 74.31 60.95 96.1 56.11 96.1 106.07" fill="#007172"></polygon><polygon points="109.41 106.07 99.73 108.51 99.73 58.55 109.41 56.11 109.41 106.07" fill="#007172"></polygon><g id="Bibliothek"><path d="M76.89,70.51l4.44-1.01c.88-.2,1.53-.31,1.97-.34s.82.04,1.16.19c.34.15.63.39.85.72.23.33.34.73.34,1.21,0,.51-.14,1.02-.42,1.51-.28.49-.66.9-1.14,1.22.68.04,1.2.26,1.56.64s.55.9.55,1.53c0,.5-.12,1.01-.35,1.54-.23.53-.55.98-.96,1.35-.41.37-.91.66-1.5.86-.37.12-1.27.35-2.7.69l-3.78.86v-10.97ZM79.13,71.82v2.54s1.47-.33,1.47-.33c.87-.2,1.42-.33,1.63-.41.38-.13.69-.33.91-.6.22-.27.33-.58.33-.93,0-.34-.1-.59-.28-.76-.19-.17-.47-.23-.84-.19-.22.03-.86.16-1.92.4l-1.29.29ZM79.13,76.19v2.93s2.08-.47,2.08-.47c.81-.18,1.32-.32,1.54-.42.33-.14.6-.34.81-.62.21-.28.31-.61.31-1,0-.33-.08-.59-.24-.78-.16-.19-.4-.31-.7-.34-.31-.04-.97.06-1.99.29l-1.81.41Z" fill="#d1e5e8"></path><path d="M88.07,69.92v-1.95s2.13-.48,2.13-.48v1.95s-2.13.48-2.13.48ZM88.07,78.95v-7.95s2.12-.48,2.12-.48v7.95s-2.12.48-2.12.48Z" fill="#d1e5e8"></path><path d="M92.29,77.99v-10.97s2.12-.48,2.12-.48v3.95c.66-.89,1.44-1.43,2.33-1.64.98-.22,1.79-.05,2.43.5.64.56.96,1.49.96,2.8,0,1.36-.33,2.48-.98,3.36-.65.88-1.45,1.43-2.38,1.64-.46.1-.91.09-1.36-.03-.45-.13-.83-.37-1.16-.75v1.17s-1.98.45-1.98.45ZM94.41,73.36c0,.82.13,1.4.39,1.74.37.47.86.64,1.47.5.47-.11.87-.39,1.2-.87.33-.47.5-1.14.5-1.99,0-.91-.17-1.53-.5-1.85-.33-.33-.76-.43-1.28-.31-.51.12-.93.41-1.27.88-.34.47-.51,1.1-.51,1.9Z" fill="#d1e5e8"></path><path d="M101.86,75.82v-10.97s2.12-.48,2.12-.48v10.97s-2.12.48-2.12.48Z" fill="#d1e5e8"></path><path d="M106.17,65.82v-1.95s2.13-.48,2.13-.48v1.95s-2.13.48-2.13.48ZM106.17,74.84v-7.95s2.12-.48,2.12-.48v7.95s-2.12.48-2.12.48Z" fill="#d1e5e8"></path><path d="M109.99,69.89c0-.7.17-1.41.52-2.15s.84-1.34,1.48-1.83c.64-.49,1.35-.82,2.14-1,1.22-.28,2.21-.11,2.99.49.78.6,1.17,1.5,1.17,2.7,0,1.2-.39,2.29-1.18,3.26s-1.77,1.59-2.96,1.86c-.74.17-1.44.16-2.11-.02-.67-.18-1.18-.55-1.53-1.1s-.52-1.29-.52-2.21ZM112.17,69.51c0,.79.19,1.35.57,1.68.38.33.85.44,1.4.31s1.02-.44,1.4-.94c.38-.51.56-1.16.56-1.96,0-.78-.19-1.33-.57-1.67-.38-.33-.84-.44-1.4-.31s-1.02.44-1.4.95c-.38.51-.57,1.15-.57,1.94Z" fill="#d1e5e8"></path><path d="M123.38,62.81v1.68s-1.45.33-1.45.33v3.2c0,.65.02,1.02.04,1.12.03.1.09.17.19.22.1.05.22.06.36.02.2-.04.48-.18.86-.4l.18,1.59c-.5.32-1.06.55-1.68.7-.38.09-.73.1-1.04.04-.31-.06-.53-.17-.68-.34s-.24-.42-.3-.75c-.05-.23-.07-.72-.07-1.47v-3.47s-.98.22-.98.22v-1.68s.98-.22.98-.22v-1.58s2.13-1.71,2.13-1.71v2.81s1.46-.33,1.46-.33Z" fill="#d1e5e8"></path><path d="M126.98,58.97v4.03c.69-.95,1.51-1.53,2.46-1.75.49-.11.93-.12,1.33-.03.39.09.69.25.89.49.2.23.34.51.41.84.07.32.11.84.11,1.55v4.66s-2.13.48-2.13.48v-4.2c0-.83-.04-1.35-.12-1.56s-.22-.35-.43-.44c-.2-.09-.46-.09-.77-.02-.35.08-.67.24-.95.47-.28.23-.48.53-.61.91-.13.37-.19.89-.19,1.56v3.98s-2.13.48-2.13.48v-10.97s2.12-.48,2.12-.48Z" fill="#d1e5e8"></path><path d="M139,64.69l2.12-.13c-.27.83-.7,1.51-1.29,2.05-.59.54-1.32.9-2.21,1.1-1.4.32-2.43.1-3.11-.65-.53-.6-.8-1.46-.8-2.56,0-1.32.35-2.43,1.04-3.33s1.58-1.48,2.64-1.72c1.2-.27,2.14-.09,2.83.53.69.63,1.02,1.75.99,3.36l-5.33,1.21c.02.62.19,1.07.52,1.34.33.27.74.35,1.23.24.33-.08.61-.23.84-.46.23-.23.4-.56.51-.98ZM139.12,62.53c-.02-.61-.17-1.03-.48-1.28-.3-.25-.67-.32-1.11-.22-.46.11-.85.36-1.15.76-.3.4-.45.89-.45,1.46l3.18-.72Z" fill="#d1e5e8"></path><path d="M142.89,66.33v-10.97s2.12-.48,2.12-.48v5.82s2.49-3.36,2.49-3.36l2.62-.59-2.75,3.53,2.95,4.38-2.3.52-2.02-3.11-.99,1.25v2.54s-2.13.48-2.13.48Z" fill="#d1e5e8"></path></g><g id="B.60"><path d="M113.09,81.54l4.58-1.13c.91-.22,1.58-.35,2.03-.39.44-.04.84.03,1.2.18.35.15.64.4.88.74.23.34.35.76.35,1.25,0,.54-.14,1.06-.43,1.58-.29.52-.68.95-1.18,1.3.7.03,1.23.25,1.61.64s.56.93.56,1.59c0,.52-.12,1.06-.36,1.61-.24.55-.57,1.03-.99,1.42-.42.4-.94.71-1.55.92-.39.14-1.32.39-2.79.76l-3.9.96v-11.45ZM115.4,82.88v2.65l1.52-.37c.9-.22,1.46-.37,1.68-.45.4-.14.71-.36.93-.64s.34-.61.34-.98-.1-.62-.29-.79-.49-.24-.87-.19c-.23.03-.89.18-1.98.45l-1.33.33ZM115.4,87.43v3.06l2.14-.53c.83-.21,1.36-.36,1.59-.46.34-.15.62-.37.84-.66.22-.3.32-.65.32-1.05,0-.34-.08-.62-.25-.81s-.41-.31-.72-.35c-.32-.03-1,.08-2.05.34l-1.87.46Z" fill="#d1e5e8"></path><path d="M124.62,90.16v-2.2l2.2-.54v2.2l-2.2.54Z" fill="#d1e5e8"></path><path d="M135.97,79.58l-2.13.66c-.05-.43-.19-.72-.41-.89-.22-.16-.5-.21-.85-.14-.46.09-.86.38-1.18.86-.32.48-.52,1.39-.61,2.72.55-.75,1.23-1.21,2.04-1.37.92-.18,1.7.01,2.36.58.65.57.98,1.4.98,2.51,0,1.17-.34,2.18-1.03,3.02-.69.84-1.57,1.37-2.65,1.59-1.16.23-2.11-.03-2.85-.78-.75-.75-1.12-2.15-1.12-4.2,0-2.1.39-3.69,1.16-4.77.78-1.08,1.78-1.74,3.02-1.99.87-.17,1.59-.07,2.16.3.57.37.93,1.01,1.09,1.91ZM130.99,85.35c0,.71.16,1.23.49,1.55.33.32.7.44,1.12.36s.74-.31,1.02-.68c.27-.37.41-.92.41-1.64s-.15-1.26-.44-1.55c-.29-.29-.66-.39-1.09-.3s-.78.32-1.07.71c-.29.39-.44.91-.44,1.55Z" fill="#d1e5e8"></path><path d="M141.79,75.42c1.11-.26,1.98-.06,2.6.59.74.77,1.12,2.23,1.12,4.41s-.38,3.81-1.12,4.93c-.62.92-1.48,1.51-2.59,1.77s-2.01.04-2.7-.66c-.68-.7-1.02-2.15-1.02-4.35s.38-3.79,1.12-4.92c.62-.92,1.48-1.51,2.59-1.77ZM141.79,77.24c-.27.06-.5.2-.71.42-.21.22-.37.56-.48,1.02-.15.6-.23,1.58-.23,2.92s.07,2.25.2,2.72c.14.47.31.77.51.89.21.12.44.15.71.09s.5-.2.71-.42c.21-.22.37-.56.48-1.02.15-.6.23-1.57.23-2.91s-.07-2.25-.2-2.72c-.14-.47-.31-.77-.51-.89-.21-.12-.44-.15-.71-.09Z" fill="#d1e5e8"></path></g></svg> 