<?xml version="1.0" encoding="UTF-8"?> <svg xmlns="http://www.w3.org/2000/svg" id="Gebaeude_F_3" viewBox="0 0 95 110"><rect x="14.7" y="14.35" width="65" height="14.77" fill="#96b98d"></rect><rect x="14.7" y="29.12" width="65" height="66.48" fill="#44904a"></rect><g id="F.3"><path d="M37.64,65.93v-11.45h7.85v1.94h-5.54v2.71h4.78v1.94h-4.78v4.87h-2.31Z" fill="#dde7da"></path><path d="M45.61,65.93v-2.2h2.2v2.2h-2.2Z" fill="#dde7da"></path><path d="M49.51,62.89l2.12-.26c.07.54.25.96.55,1.24.3.29.66.43,1.08.43.45,0,.83-.17,1.14-.52s.46-.81.46-1.39c0-.55-.15-.99-.45-1.31-.3-.32-.66-.48-1.09-.48-.28,0-.62.05-1.01.16l.24-1.79c.59.02,1.05-.11,1.36-.39s.47-.64.47-1.09c0-.39-.11-.69-.34-.92-.23-.23-.53-.34-.91-.34s-.7.13-.96.39c-.27.26-.43.64-.48,1.14l-2.02-.34c.14-.69.35-1.25.64-1.66s.68-.74,1.19-.98c.51-.24,1.08-.36,1.71-.36,1.08,0,1.94.34,2.59,1.03.54.56.8,1.2.8,1.91,0,1.01-.55,1.81-1.65,2.41.66.14,1.18.46,1.57.95.39.49.59,1.08.59,1.77,0,1.01-.37,1.86-1.1,2.57-.73.71-1.65,1.06-2.74,1.06-1.04,0-1.9-.3-2.58-.89-.68-.6-1.08-1.38-1.19-2.34Z" fill="#dde7da"></path></g></svg> 