<?xml version="1.0" encoding="UTF-8"?> <svg xmlns="http://www.w3.org/2000/svg" id="MFC_8" viewBox="0 0 180 140"><polygon points="55.2 127.64 25.13 111.81 25.13 39.03 55.2 54.85 55.2 127.64" fill="#8d939e"></polygon><polygon points="150.13 108.65 55.2 127.64 55.2 54.85 150.13 35.86 150.13 108.65" fill="#767b85"></polygon><polygon points="25.13 39.03 120.07 20.04 150.13 35.86 55.2 54.85 25.13 39.03" fill="#b7bcc5"></polygon><g id="MFC.8"><path d="M78.86,91.42v-11.45l3.46-.74,2.08,7.37,2.05-8.25,3.47-.74v11.45l-2.15.46v-9.02l-2.27,9.5-2.23.47-2.27-8.53v9.02l-2.15.46Z" fill="#e7e7ea"></path><path d="M91.84,88.66v-11.45l7.85-1.67v1.94l-5.54,1.18v2.71l4.78-1.02v1.94l-4.78,1.02v4.87l-2.31.49Z" fill="#e7e7ea"></path><path d="M108.52,80.9l2.24.23c-.34,1.32-.92,2.37-1.71,3.15-.8.78-1.81,1.3-3.04,1.56-1.52.32-2.77.07-3.75-.76-.98-.83-1.47-2.15-1.47-3.95,0-1.91.49-3.49,1.48-4.75s2.28-2.07,3.88-2.41c1.4-.3,2.54-.13,3.41.52.52.38.91,1,1.17,1.86l-2.29,1.03c-.14-.56-.42-.97-.85-1.23-.43-.25-.95-.31-1.57-.18-.85.18-1.54.63-2.07,1.35-.53.72-.79,1.77-.79,3.13,0,1.45.26,2.42.78,2.93.52.5,1.2.67,2.03.49.61-.13,1.14-.44,1.59-.92.44-.48.76-1.17.95-2.05Z" fill="#e7e7ea"></path><path d="M112.33,84.3v-2.2l2.19-.47v2.2l-2.19.47Z" fill="#e7e7ea"></path><path d="M117.79,76.96c-.57-.12-.98-.36-1.24-.73-.26-.36-.39-.8-.39-1.3,0-.85.3-1.62.89-2.31.6-.68,1.44-1.14,2.54-1.38,1.09-.23,1.93-.13,2.54.3s.9,1.07.9,1.93c0,.53-.14,1.03-.41,1.51-.28.47-.66.87-1.16,1.2.64.12,1.12.39,1.45.81.33.42.5.95.5,1.59,0,1.06-.34,1.99-1.01,2.79-.67.8-1.57,1.33-2.69,1.56-1.04.22-1.91.13-2.6-.27-.82-.47-1.23-1.27-1.23-2.4,0-.62.15-1.22.46-1.81.31-.58.79-1.09,1.45-1.51ZM118.04,79.61c0,.6.15,1.04.46,1.31s.7.36,1.16.26c.45-.1.83-.34,1.12-.73.3-.39.45-.89.45-1.5,0-.54-.15-.94-.45-1.2-.3-.26-.69-.34-1.15-.24-.54.11-.94.38-1.2.81-.26.43-.39.85-.39,1.29ZM118.25,74.66c0,.44.12.75.37.94.25.19.58.24.99.16.42-.09.75-.28,1-.58s.38-.67.38-1.11c0-.41-.12-.71-.37-.91-.25-.19-.57-.25-.98-.16-.42.09-.76.29-1.01.59-.25.3-.38.66-.38,1.07Z" fill="#e7e7ea"></path></g></svg> 