<?xml version="1.0" encoding="UTF-8"?> <svg xmlns="http://www.w3.org/2000/svg" id="Gebaeude_B_64" viewBox="0 0 210 150"><path d="M99.51,27.52v40.76l-34,7.24s-16-5-16-19c0-19,50-29,50-29Z" fill="#008a8b"></path><polygon points="26.51 129.52 43.51 139.52 43.51 94.52 26.51 84.52 26.51 129.52" fill="#008a8b"></polygon><path d="M13.51,102.52s1,7,5,12,8.11,7.92,8.11,7.92l-.11-37.92,7-1s-.19-.37-5.83-4.7c-6.35-4.87-7.9-7.11-8.82-8.19-4.67-5.49-5.35-12.11-5.35-12.11v44Z" fill="#008a8b"></path><path d="M188.51,52.52c-6-3-78-41-78-41,0,0-34.81,6.57-52,12-19,6-32,12-38,18s-7,12-7,17,3.79,11.55,10.34,17.53c4.29,3.92,9.66,7.47,9.66,7.47l-7,1,17,10,145.35-31.73s6.65-2.27,6.65-4.27-1-3-7-6ZM65.51,75.52s-13-4-15-17c-3.04-19.79,49-31,49-31l54,29-88,19Z" fill="#5ab2b4"></path><path d="M191.51,61.52c-1.67.84-3.89,1.63-4.58,1.86l-143.42,31.14v45l139-30s8.73-1.86,12-4c.4-.26,1-1,1-1v-46s-1.61,1.8-4,3Z" fill="#007172"></path><polygon points="153.51 56.52 99.51 68.27 99.51 27.52 153.51 56.52" fill="#008a8b"></polygon><g id="B.64"><path d="M103.55,101.34l4.58-1.14c.91-.23,1.58-.36,2.03-.39.44-.04.84.02,1.19.17.35.15.65.4.88.74.23.34.35.76.35,1.25,0,.54-.14,1.06-.43,1.58-.29.52-.68.95-1.18,1.3.7.03,1.23.24,1.61.64.37.4.56.93.56,1.59,0,.52-.12,1.06-.36,1.61-.24.55-.57,1.03-.99,1.43-.42.4-.94.71-1.55.93-.39.14-1.32.4-2.79.77l-3.9.97v-11.45ZM105.86,102.67v2.65l1.52-.38c.9-.22,1.46-.38,1.68-.46.4-.15.71-.36.93-.64s.34-.61.34-.98-.1-.62-.29-.79c-.2-.17-.49-.23-.87-.19-.23.03-.89.18-1.98.45l-1.33.33ZM105.86,107.22v3.06l2.14-.53c.83-.21,1.36-.36,1.59-.47.34-.15.62-.37.84-.67.22-.3.32-.65.32-1.05,0-.34-.08-.62-.25-.81-.17-.2-.41-.31-.72-.34-.31-.03-1,.08-2.05.35l-1.87.47Z" fill="#d1e5e8"></path><path d="M114.68,110.02v-2.2l2.2-.55v2.2l-2.2.55Z" fill="#d1e5e8"></path><path d="M134.06,105.3v-2.3l-4.69,1.17v-1.92l4.97-8.51,1.84-.46v7.27l1.42-.35v1.93l-1.42.35v2.3l-2.13.53ZM134.06,101.07v-3.91l-2.63,4.57,2.63-.66Z" fill="#d1e5e8"></path><path d="M126.72,98.99l-2.13.66c-.05-.43-.19-.72-.41-.89-.22-.16-.5-.21-.85-.14-.46.09-.86.38-1.18.86-.32.48-.52,1.39-.61,2.72.55-.75,1.23-1.21,2.04-1.37.92-.18,1.7.01,2.36.58.65.57.98,1.4.98,2.51,0,1.17-.34,2.18-1.03,3.02-.69.84-1.57,1.37-2.65,1.59-1.16.23-2.11-.03-2.85-.78-.75-.75-1.12-2.15-1.12-4.2,0-2.1.39-3.69,1.16-4.77.78-1.08,1.78-1.74,3.02-1.99.87-.17,1.59-.07,2.16.3.57.37.93,1.01,1.09,1.91ZM121.74,104.77c0,.71.16,1.23.49,1.55.33.32.7.44,1.12.36s.74-.31,1.02-.68c.27-.37.41-.92.41-1.64s-.15-1.26-.44-1.55c-.29-.29-.66-.39-1.09-.3s-.78.32-1.07.71c-.29.39-.44.91-.44,1.55Z" fill="#d1e5e8"></path></g></svg> 