<?xml version="1.0" encoding="UTF-8"?> <svg xmlns="http://www.w3.org/2000/svg" id="Gebaeude_F_5" viewBox="0 0 340 110"><polygon points="84.87 18.65 17.54 18.65 17.54 37.04 84.87 37.04 322.5 37.04 322.5 18.65 84.87 18.65" fill="#96b98d"></polygon><polygon points="84.87 37.04 17.54 37.04 17.54 90.97 84.87 90.97 322.5 90.97 322.5 37.04 84.87 37.04" fill="#44904a"></polygon><g id="F.5"><path d="M156.83,73.8v-20.37h13.96v3.45h-9.85v4.82h8.5v3.45h-8.5v8.66h-4.11Z" fill="#dde7da"></path><path d="M171.01,73.8v-3.9h3.9v3.9h-3.9Z" fill="#dde7da"></path><path d="M178.13,68.57l3.89-.4c.11.88.44,1.58.99,2.09s1.18.77,1.89.77c.81,0,1.51-.33,2.07-.99.56-.66.85-1.66.85-2.99,0-1.25-.28-2.19-.84-2.81s-1.29-.94-2.19-.94c-1.12,0-2.13.5-3.02,1.49l-3.17-.46,2-10.6h10.32v3.65h-7.36l-.61,3.46c.87-.44,1.76-.65,2.67-.65,1.73,0,3.2.63,4.4,1.89,1.2,1.26,1.81,2.9,1.81,4.9,0,1.68-.49,3.17-1.46,4.49-1.33,1.8-3.16,2.7-5.52,2.7-1.88,0-3.41-.5-4.6-1.51-1.19-1.01-1.89-2.37-2.13-4.07Z" fill="#dde7da"></path></g></svg> 