<?xml version="1.0" encoding="UTF-8"?> <svg xmlns="http://www.w3.org/2000/svg" id="Gebaeude_D_3" viewBox="0 0 130 100"><rect x="19.98" y="17.03" width="90" height="25.96" fill="#cad391"></rect><rect x="19.98" y="42.99" width="90" height="41.52" fill="#8c9b39"></rect><g id="D.3"><path d="M53.45,57.7h4.23c.95,0,1.68.07,2.18.22.67.2,1.25.55,1.73,1.05.48.51.84,1.12,1.09,1.86.25.73.38,1.63.38,2.71,0,.94-.12,1.76-.35,2.44-.29.83-.7,1.51-1.23,2.02-.4.39-.94.7-1.62.91-.51.16-1.19.24-2.05.24h-4.35v-11.45ZM55.76,59.64v7.59h1.73c.65,0,1.11-.04,1.4-.11.38-.09.69-.25.93-.48.25-.22.45-.59.61-1.11.16-.51.23-1.21.23-2.1s-.08-1.56-.23-2.04c-.16-.47-.38-.84-.66-1.11s-.64-.45-1.07-.54c-.32-.07-.96-.11-1.9-.11h-1.04Z" fill="#ecf0dc"></path><path d="M64.99,69.15v-2.2h2.2v2.2h-2.2Z" fill="#ecf0dc"></path><path d="M68.89,66.11l2.12-.26c.07.54.25.96.55,1.24.3.29.66.43,1.08.43.45,0,.83-.17,1.14-.52s.46-.81.46-1.39c0-.55-.15-.99-.45-1.31-.3-.32-.66-.48-1.09-.48-.28,0-.62.05-1.01.16l.24-1.79c.59.02,1.05-.11,1.36-.39s.47-.64.47-1.09c0-.39-.11-.69-.34-.92-.23-.23-.53-.34-.91-.34s-.7.13-.96.39c-.27.26-.43.64-.48,1.14l-2.02-.34c.14-.69.35-1.25.64-1.66s.68-.74,1.19-.98c.51-.24,1.08-.36,1.71-.36,1.08,0,1.94.34,2.59,1.03.54.56.8,1.2.8,1.91,0,1.01-.55,1.81-1.65,2.41.66.14,1.18.46,1.57.95.39.49.59,1.08.59,1.77,0,1.01-.37,1.86-1.1,2.57-.73.71-1.65,1.06-2.74,1.06-1.04,0-1.9-.3-2.58-.89-.68-.6-1.08-1.38-1.19-2.34Z" fill="#ecf0dc"></path></g></svg> 