<?xml version="1.0" encoding="UTF-8"?> <svg xmlns="http://www.w3.org/2000/svg" id="Gebaeude_G_1" viewBox="0 0 160 160"><rect x="27.6" y="80.92" width="16.15" height="12.22" fill="#b57393"></rect><rect x="27.6" y="93.14" width="16.15" height="50.09" fill="#8e195a"></rect><rect x="79.31" y="25.88" width="13.85" height="45.81" fill="#8e195a"></rect><rect x="93.16" y="20.92" width="23.29" height="50.77" fill="#8e195a"></rect><polygon points="116.45 16.3 95.47 16.3 93.37 16.3 79.31 16.3 79.31 25.88 93.16 25.88 93.16 20.92 116.45 20.92 116.45 16.3" fill="#b57393"></polygon><polygon points="95.68 79.77 95.68 35.92 79.52 35.92 79.52 19.77 48.37 19.77 48.37 54.38 27.6 54.38 27.6 80.92 43.75 80.92 43.75 97.08 132.6 97.08 132.6 79.77 95.68 79.77" fill="#b57393"></polygon><rect x="43.73" y="96.65" width="88.86" height="51.2" fill="#8e195a"></rect><g id="G.1"><path d="M78.78,117.72v-1.93h4.98v4.56c-.48.47-1.19.88-2.11,1.24-.92.36-1.85.54-2.79.54-1.2,0-2.24-.25-3.13-.75-.89-.5-1.56-1.22-2.01-2.16-.45-.93-.67-1.95-.67-3.05,0-1.19.25-2.25.75-3.18.5-.93,1.23-1.64,2.2-2.13.73-.38,1.65-.57,2.74-.57,1.42,0,2.53.3,3.33.89.8.6,1.31,1.42,1.54,2.47l-2.3.43c-.16-.56-.46-1.01-.91-1.33-.45-.33-1-.49-1.67-.49-1.01,0-1.81.32-2.41.96-.6.64-.89,1.59-.89,2.85,0,1.36.3,2.38.91,3.06.6.68,1.4,1.02,2.37,1.02.48,0,.97-.09,1.46-.29.49-.19.9-.42,1.25-.69v-1.45h-2.65Z" fill="#e5cfdb"></path><path d="M85.88,121.94v-2.2h2.2v2.2h-2.2Z" fill="#e5cfdb"></path><path d="M95.47,121.94h-2.2v-8.27c-.8.75-1.75,1.3-2.84,1.66v-1.99c.57-.19,1.2-.54,1.87-1.07s1.13-1.13,1.38-1.83h1.78v11.5Z" fill="#e5cfdb"></path></g></svg> 