<?xml version="1.0" encoding="UTF-8"?> <svg xmlns="http://www.w3.org/2000/svg" viewBox="0 0 200 140"><g id="Audimax_B_65"><polygon points="21.57 68.02 46.26 83.38 46.26 38.38 21.57 23.02 21.57 68.02" fill="#008a8b"></polygon><path d="M21.57,23.02l47-11,107.35,63.04-49,10-51.67-29.59s-15,2-27-1c-7.85-1.96-13.47-6.39-12-10,1.48-3.65,10-6,10-6l-24.69-15.45Z" fill="#5ab2b4"></path><polygon points="126.93 130.05 175.93 120.05 175.93 75.05 126.93 85.05 126.93 130.05" fill="#007172"></polygon><polygon points="75.26 100.47 126.93 130.05 126.93 85.05 75.26 55.47 75.26 100.47" fill="#008a8b"></polygon><path d="M36.02,45.58v43.89s-.76,3,4.24,6,10,4,19,5c4.97.55,16,0,16,0v-45s-18.07,1.27-26-1c-14-4-13.24-8.89-13.24-8.89Z" fill="#008a8b"></path><g id="Audimax"><path d="M45.86,73.28l-2.69-1.5-1.07-3.23-4.9-2.73-1.01,2.07-2.63-1.46,4.79-8.95,2.62,1.46,4.9,14.34ZM41.31,66.15l-1.69-5.25-1.66,3.39,3.35,1.86Z" fill="#d1e5e8"></path><path d="M53.01,77.25v-1.26c-.32.27-.75.39-1.28.35-.53-.04-1.08-.22-1.67-.54-.6-.33-1.13-.75-1.61-1.27-.47-.51-.82-1.05-1.03-1.62-.21-.57-.32-1.25-.32-2.04v-5.32s2.36,1.31,2.36,1.31v3.87c0,1.18.04,1.93.12,2.25.09.31.24.61.47.9.23.28.52.52.87.72.4.22.76.32,1.08.29.32-.03.54-.17.65-.41.12-.24.18-.97.18-2.17v-3.55s2.35,1.31,2.35,1.31v8.41s-2.19-1.22-2.19-1.22Z" fill="#d1e5e8"></path><path d="M65.77,84.36l-2.18-1.21v-1.24c-.36.28-.79.4-1.28.36-.49-.04-.99-.2-1.49-.48-1.02-.57-1.89-1.44-2.62-2.63-.73-1.18-1.09-2.47-1.09-3.87,0-1.42.36-2.31,1.07-2.66.71-.35,1.6-.22,2.69.38.99.55,1.85,1.42,2.57,2.61v-4.18s2.35,1.31,2.35,1.31v11.61ZM59.5,76.48c0,.9.13,1.62.39,2.17.38.79.91,1.38,1.59,1.76.54.3,1,.34,1.38.12.38-.22.57-.77.57-1.64,0-.97-.18-1.76-.55-2.39-.37-.63-.84-1.11-1.41-1.42-.56-.31-1.03-.36-1.4-.15s-.57.73-.57,1.57Z" fill="#d1e5e8"></path><path d="M68.09,85.65v-8.41s2.36,1.31,2.36,1.31v8.41s-2.36-1.31-2.36-1.31ZM68.1,76.1v-2.06s2.35,1.31,2.35,1.31v2.06s-2.35-1.31-2.35-1.31Z" fill="#d1e5e8"></path><path d="M72.68,79.79l2.17,1.21v1.15c.78-.46,1.7-.39,2.77.2.57.32,1.06.7,1.48,1.16.42.45.76.98,1.03,1.58.39-.23.81-.33,1.26-.3.45.03.93.19,1.45.47.65.36,1.2.8,1.66,1.3.45.5.79,1.06,1.01,1.67.16.45.24,1.07.24,1.88v5.38s-2.36-1.31-2.36-1.31v-4.81c0-.83-.07-1.42-.24-1.75-.22-.44-.55-.78-1-1.03-.33-.18-.64-.26-.93-.23-.29.03-.5.19-.63.49-.13.3-.19.84-.19,1.63v4.04s-2.35-1.31-2.35-1.31v-4.61c0-.82-.04-1.37-.12-1.65-.08-.28-.21-.53-.39-.75-.18-.21-.41-.41-.72-.57-.36-.2-.69-.29-.98-.27s-.5.17-.62.45c-.13.28-.19.82-.19,1.63v4.09s-2.35-1.31-2.35-1.31v-8.41Z" fill="#d1e5e8"></path><path d="M89.84,91.91l-2.13-1.55c.24-.68.65-1.05,1.24-1.12.59-.07,1.46.22,2.61.87,1.05.58,1.83,1.14,2.34,1.66.51.52.87,1.02,1.08,1.5.21.48.31,1.2.31,2.17l-.03,2.58c0,.74.04,1.31.11,1.7.07.39.22.85.42,1.36l-2.33-1.29c-.06-.18-.14-.44-.23-.78-.04-.15-.07-.26-.08-.31-.4.15-.83.18-1.29.11-.46-.07-.94-.25-1.46-.54-.91-.51-1.64-1.15-2.16-1.91-.53-.76-.79-1.5-.79-2.22,0-.48.12-.83.36-1.07.24-.24.58-.34,1.01-.3.43.04,1.06.22,1.87.52,1.1.42,1.86.66,2.28.72v-.22c0-.43-.11-.8-.33-1.1-.22-.31-.64-.63-1.26-.98-.42-.23-.74-.34-.98-.31-.23.03-.42.19-.57.5ZM92.99,95.47c-.3-.07-.78-.22-1.43-.46-.65-.23-1.08-.34-1.28-.32-.31.04-.46.21-.46.53,0,.31.12.65.37,1.01.24.36.56.65.94.86.42.24.83.33,1.21.28.28-.04.47-.18.56-.42.06-.16.09-.5.09-1.03v-.44Z" fill="#d1e5e8"></path><path d="M96.48,101.45l3.21-2.55-3.07-5.79,2.87,1.6,1.57,3.19,1.66-1.39,2.76,1.54-3.02,2.31,3.28,6.26-2.89-1.61-1.8-3.61-1.83,1.59-2.75-1.53Z" fill="#d1e5e8"></path></g></g><g id="Bibliothek_B_60"><g id="B.65"><path d="M137.56,101.22l4.58-.81c.91-.16,1.58-.24,2.03-.24.45,0,.84.08,1.2.26.35.18.64.45.88.8.23.36.35.78.35,1.28,0,.54-.14,1.05-.43,1.55-.29.5-.68.9-1.18,1.21.7.08,1.23.33,1.61.76.38.42.56.97.56,1.63,0,.52-.12,1.05-.36,1.58-.24.54-.57.99-.99,1.35s-.94.64-1.55.82c-.39.11-1.32.3-2.79.57l-3.9.69v-11.45ZM139.87,102.72v2.65l1.52-.27c.9-.16,1.46-.27,1.68-.33.4-.12.71-.31.93-.57.23-.27.34-.58.34-.96s-.1-.62-.29-.81-.49-.27-.87-.25c-.23.01-.89.12-1.98.31l-1.33.23ZM139.87,107.28v3.06l2.14-.38c.83-.15,1.36-.26,1.59-.35.34-.12.62-.32.84-.6.22-.28.32-.62.32-1.03,0-.34-.08-.62-.25-.83s-.41-.34-.72-.4c-.32-.05-1,.01-2.05.2l-1.87.33Z" fill="#d1e5e8"></path><path d="M149.09,110.64v-2.2l2.2-.39v2.2l-2.2.39Z" fill="#d1e5e8"></path><path d="M160.49,100.11l-2.13.66c-.05-.43-.19-.72-.41-.89-.22-.16-.5-.21-.85-.14-.46.09-.86.38-1.18.86-.32.48-.52,1.39-.61,2.72.55-.75,1.23-1.21,2.04-1.37.92-.18,1.7.01,2.36.58.65.57.98,1.4.98,2.51,0,1.17-.34,2.18-1.03,3.02-.69.84-1.57,1.37-2.65,1.59-1.16.23-2.11-.03-2.85-.78-.75-.75-1.12-2.15-1.12-4.2,0-2.1.39-3.69,1.16-4.77.78-1.08,1.78-1.74,3.02-1.99.87-.17,1.59-.07,2.16.3.57.37.93,1.01,1.09,1.91ZM155.52,105.88c0,.71.16,1.23.49,1.55.33.32.7.44,1.12.36s.74-.31,1.02-.68c.27-.37.41-.92.41-1.64s-.15-1.26-.44-1.55c-.29-.29-.66-.39-1.09-.3s-.78.32-1.07.71c-.29.39-.44.91-.44,1.55Z" fill="#d1e5e8"></path><path d="M162.2,105.55l2.19-.54c.06.49.25.85.55,1.1.31.24.66.34,1.06.28.46-.07.85-.31,1.16-.73.32-.42.48-1,.48-1.75,0-.7-.16-1.21-.47-1.51-.32-.31-.73-.42-1.23-.35-.63.09-1.2.45-1.7,1.08h-1.78s1.12-6.12,1.12-6.12l5.8-.84v2.05l-4.14.6-.34,2c.49-.32.99-.51,1.5-.58.97-.14,1.8.09,2.48.7.68.61,1.02,1.48,1.02,2.61,0,.94-.27,1.82-.82,2.64-.75,1.12-1.78,1.77-3.1,1.97-1.06.15-1.92,0-2.59-.48-.67-.47-1.07-1.18-1.2-2.12Z" fill="#d1e5e8"></path></g></g></svg> 