<?xml version="1.0" encoding="UTF-8"?> <svg xmlns="http://www.w3.org/2000/svg" id="GruenderCube_2" viewBox="0 0 150 120"><polygon points="58.4 110.44 12.67 87.01 12.67 30.91 58.4 54.35 58.4 110.44" fill="#8d939e"></polygon><polygon points="137.67 93.8 58.4 110.44 58.4 54.35 137.67 37.71 137.67 93.8" fill="#767b85"></polygon><polygon points="12.67 30.91 91.94 14.28 137.67 37.71 58.4 54.35 12.67 30.91" fill="#b7bcc5"></polygon><g id="GC.2"><path d="M85.83,78.18v-1.93l4.98-1.06v4.56c-.48.57-1.19,1.13-2.11,1.69-.92.55-1.85.93-2.79,1.13-1.2.25-2.24.23-3.13-.09-.89-.31-1.56-.89-2.01-1.73-.45-.84-.67-1.81-.67-2.91,0-1.19.25-2.31.75-3.34.5-1.03,1.23-1.9,2.2-2.6.73-.54,1.65-.92,2.74-1.15,1.42-.3,2.53-.24,3.33.19s1.31,1.14,1.54,2.15l-2.3.92c-.16-.53-.46-.91-.91-1.14s-1-.28-1.67-.13c-1.01.21-1.81.71-2.41,1.47-.6.77-.89,1.78-.89,3.04,0,1.36.3,2.31.91,2.87.6.55,1.4.72,2.38.51.48-.1.97-.3,1.46-.59.49-.29.9-.61,1.25-.96v-1.45l-2.65.56Z" fill="#e7e7ea"></path><path d="M99.88,75.19l2.24.23c-.34,1.32-.92,2.37-1.71,3.15-.8.78-1.81,1.3-3.04,1.56-1.52.32-2.77.07-3.75-.76-.98-.83-1.47-2.15-1.47-3.95,0-1.91.49-3.49,1.48-4.76s2.28-2.07,3.88-2.41c1.4-.3,2.54-.13,3.41.52.52.38.91,1,1.17,1.86l-2.29,1.03c-.14-.56-.42-.97-.85-1.23-.43-.25-.95-.31-1.57-.18-.85.18-1.54.63-2.07,1.35-.53.72-.79,1.77-.79,3.13,0,1.45.26,2.42.78,2.93.52.5,1.2.67,2.03.49.61-.13,1.14-.44,1.59-.92.44-.48.76-1.17.95-2.05Z" fill="#e7e7ea"></path><path d="M103.69,78.6v-2.2l2.19-.47v2.2l-2.19.47Z" fill="#e7e7ea"></path><path d="M114.68,74.22v2.04l-7.7,1.64c.08-.79.33-1.57.75-2.35.42-.78,1.24-1.87,2.47-3.27.99-1.13,1.6-1.89,1.82-2.26.3-.52.45-1,.45-1.44,0-.49-.13-.84-.4-1.04-.26-.21-.63-.26-1.09-.16-.46.1-.82.31-1.09.65-.27.33-.43.83-.47,1.47l-2.19.25c.13-1.24.54-2.19,1.23-2.86.69-.67,1.55-1.12,2.58-1.34,1.13-.24,2.02-.12,2.66.35.65.47.97,1.16.97,2.07,0,.52-.09,1.03-.28,1.53-.19.51-.48,1.06-.88,1.65-.27.4-.74.98-1.44,1.77-.69.78-1.13,1.3-1.32,1.55-.19.25-.33.48-.45.7l4.36-.93Z" fill="#e7e7ea"></path></g></svg> 