<?xml version="1.0" encoding="UTF-8"?> <svg xmlns="http://www.w3.org/2000/svg" id="GruenderCube_1" viewBox="0 0 150 120"><polygon points="58.91 106.72 13.18 83.73 13.18 26.88 58.91 49.87 58.91 106.72" fill="#8d939e"></polygon><polygon points="138.18 90.4 58.91 106.72 58.91 49.87 138.18 33.55 138.18 90.4" fill="#767b85"></polygon><polygon points="13.18 26.88 92.45 10.56 138.18 33.55 58.91 49.87 13.18 26.88" fill="#b7bcc5"></polygon><g id="GC.1"><path d="M85.16,74.37v-1.93l4.98-1.06v4.56c-.48.57-1.19,1.13-2.11,1.69-.92.55-1.85.93-2.79,1.13-1.2.25-2.24.23-3.13-.09-.89-.31-1.56-.89-2.01-1.73-.45-.84-.67-1.81-.67-2.91,0-1.19.25-2.31.75-3.34.5-1.03,1.23-1.9,2.2-2.6.73-.54,1.65-.92,2.74-1.15,1.42-.3,2.53-.24,3.33.19.8.43,1.31,1.14,1.54,2.15l-2.3.92c-.16-.53-.46-.91-.91-1.14s-1-.28-1.67-.13c-1.01.21-1.81.71-2.41,1.47s-.89,1.78-.89,3.04c0,1.36.3,2.31.91,2.87.6.55,1.4.72,2.38.51.48-.1.97-.3,1.46-.59.49-.29.9-.61,1.25-.96v-1.45l-2.65.56Z" fill="#e7e7ea"></path><path d="M99.21,71.39l2.24.23c-.34,1.32-.92,2.37-1.71,3.15s-1.81,1.3-3.04,1.56c-1.52.32-2.77.07-3.75-.76-.98-.83-1.47-2.15-1.47-3.95,0-1.91.49-3.49,1.48-4.76s2.28-2.07,3.88-2.41c1.4-.3,2.54-.13,3.41.52.52.38.91,1,1.17,1.86l-2.29,1.03c-.14-.56-.42-.97-.85-1.23s-.95-.31-1.57-.18c-.85.18-1.54.63-2.07,1.35s-.79,1.77-.79,3.13c0,1.45.26,2.42.78,2.93.52.5,1.2.67,2.03.49.61-.13,1.14-.44,1.59-.92s.76-1.17.95-2.05Z" fill="#e7e7ea"></path><path d="M103.02,74.79v-2.2l2.2-.47v2.2l-2.2.47Z" fill="#e7e7ea"></path><path d="M112.21,72.84l-2.19.47v-8.27c-.8.92-1.75,1.68-2.84,2.27v-1.99c.57-.31,1.2-.8,1.87-1.46.67-.67,1.13-1.37,1.38-2.13l1.78-.38v11.5Z" fill="#e7e7ea"></path></g></svg> 