<?xml version="1.0" encoding="UTF-8"?> <svg xmlns="http://www.w3.org/2000/svg" id="Ebene_5" viewBox="0 0 60 60"><ellipse cx="28.85" cy="40.68" rx="19.85" ry="9.36" fill="#fff" stroke="#f39325" stroke-miterlimit="10" stroke-width="1.14"></ellipse><path d="M42.43,26.78c0,3.17-5.95,5.49-13.32,5.49s-13.36-2.81-13.36-5.97c0,0,.48,19.38,12.91,19.38s13.77-18.9,13.77-18.9Z" fill="#f39325"></path><path d="M42.03,29.79s1.21-3.17,5.06-1.81c3.57,1.26,1.21,5.87.32,6.99-.88,1.13-2.57,3.42-7.79,3.01" fill="none" stroke="#f39325" stroke-linecap="round" stroke-miterlimit="10" stroke-width="2.29"></path><ellipse cx="29.11" cy="26.5" rx="13.34" ry="5.73" fill="#fff" stroke="#f39325" stroke-miterlimit="10" stroke-width="1.14"></ellipse><path d="M24.53,10.16s-1.53,2.41-1.04,4.58c.48,2.17,2.4,3.91,2.89,5.79.8,3.05-.32,6.03-.32,6.03,0,0,2.09-1.45,2.25-5.06.16-3.62-2.24-4.08-3.23-6.19-.76-1.62-.55-5.15-.55-5.15Z" fill="#4b5459"></path><path d="M28.22,4.07s-1.35,1.76-1.6,3.93c-.24,2.17-.19,3.96,1.85,7.31,2.82,4.64,2.63,6.62,2.49,8.2-.33,3.7-1.96,5.07-1.96,5.07,0,0,3.56-1.35,4.18-5.23.55-3.46.11-5.47-1.11-7.25-1.44-2.09-3.14-2.48-4.05-5.95-.49-1.85.2-6.08.2-6.08Z" fill="#4b5459"></path></svg> 