<?xml version="1.0" encoding="UTF-8"?> <svg xmlns="http://www.w3.org/2000/svg" id="Kiosk" viewBox="0 0 95 110"><ellipse cx="46.28" cy="62.55" rx="28.68" ry="13.52" fill="#fff" stroke="#f39325" stroke-miterlimit="10" stroke-width="1.65"></ellipse><path d="M65.9,42.47c0,4.57-8.6,7.93-19.24,7.93s-19.3-4.06-19.3-8.63c0,0,.7,28,18.65,28s19.89-27.3,19.89-27.3Z" fill="#f39325"></path><path d="M65.32,46.82s1.74-4.59,7.31-2.61c5.16,1.83,1.74,8.48.46,10.1s-3.72,4.93-11.26,4.35" fill="none" stroke="#f39325" stroke-linecap="round" stroke-miterlimit="10" stroke-width="3.3"></path><ellipse cx="46.65" cy="42.06" rx="19.28" ry="8.28" fill="#fff" stroke="#f39325" stroke-miterlimit="10" stroke-width="1.65"></ellipse><path d="M40.04,18.46s-2.21,3.48-1.51,6.62c.7,3.13,3.47,5.66,4.18,8.36,1.16,4.41-.46,8.71-.46,8.71,0,0,3.02-2.09,3.25-7.31.23-5.22-3.24-5.9-4.67-8.94-1.09-2.33-.79-7.43-.79-7.43Z" fill="#4b5459"></path><path d="M45.37,9.65s-1.96,2.54-2.31,5.67c-.35,3.13-.28,5.72,2.67,10.57,4.07,6.71,3.8,9.57,3.6,11.84-.47,5.35-2.83,7.33-2.83,7.33,0,0,5.15-1.95,6.04-7.55.8-5,.17-7.91-1.61-10.48-2.08-3.02-4.53-3.59-5.85-8.59-.7-2.67.28-8.78.28-8.78Z" fill="#4b5459"></path><path d="M16.91,97.97v-16.55h3.34v7.35l6.75-7.35h4.49l-6.23,6.45,6.57,10.1h-4.32l-4.55-7.77-2.71,2.77v5h-3.34Z" fill="#4b5459"></path><path d="M33.54,84.36v-2.93h3.17v2.93h-3.17ZM33.54,97.97v-11.99h3.17v11.99h-3.17Z" fill="#4b5459"></path><path d="M39.23,91.81c0-1.05.26-2.07.78-3.06.52-.99,1.25-1.74,2.21-2.26.95-.52,2.01-.78,3.19-.78,1.81,0,3.3.59,4.46,1.77,1.16,1.18,1.74,2.67,1.74,4.47s-.59,3.32-1.75,4.51c-1.17,1.19-2.64,1.79-4.42,1.79-1.1,0-2.15-.25-3.14-.75-1-.5-1.76-1.23-2.28-2.19s-.78-2.13-.78-3.5ZM42.48,91.98c0,1.19.28,2.1.85,2.73s1.26.95,2.09.95,1.52-.32,2.08-.95c.56-.63.84-1.55.84-2.75s-.28-2.08-.84-2.71c-.56-.63-1.25-.95-2.08-.95s-1.52.32-2.09.95-.85,1.54-.85,2.73Z" fill="#4b5459"></path><path d="M52.97,94.55l3.18-.49c.14.62.41,1.09.82,1.4.41.32.99.48,1.74.48.82,0,1.44-.15,1.85-.45.28-.21.42-.49.42-.85,0-.24-.07-.44-.23-.6-.16-.15-.51-.29-1.06-.42-2.56-.56-4.18-1.08-4.87-1.55-.95-.65-1.42-1.55-1.42-2.7,0-1.04.41-1.91,1.23-2.62.82-.71,2.09-1.06,3.82-1.06s2.86.27,3.66.8c.8.53,1.35,1.32,1.65,2.37l-2.99.55c-.13-.47-.37-.82-.73-1.07-.36-.25-.87-.37-1.53-.37-.84,0-1.43.12-1.79.35-.24.16-.36.38-.36.64,0,.23.11.42.32.58.29.21,1.27.51,2.96.89,1.69.38,2.87.85,3.54,1.41.66.56.99,1.35.99,2.36,0,1.1-.46,2.04-1.38,2.83-.92.79-2.28,1.19-4.07,1.19-1.63,0-2.93-.33-3.88-.99-.95-.66-1.58-1.56-1.87-2.7Z" fill="#4b5459"></path><path d="M66.83,97.97v-16.55h3.17v8.78l3.71-4.22h3.91l-4.1,4.38,4.39,7.61h-3.42l-3.01-5.38-1.48,1.55v3.84h-3.17Z" fill="#4b5459"></path></svg> 