<?xml version="1.0" encoding="UTF-8"?> <svg xmlns="http://www.w3.org/2000/svg" id="Ebene_5" viewBox="0 0 60 60"><path id="Sprechblase" d="M47.28,33.96c1.17-5.3,0-11.06-3.71-15.59-6.42-7.85-17.99-9.01-25.84-2.59-7.85,6.42-9.01,17.99-2.59,25.84,6.42,7.85,17.99,9.01,25.84,2.59,1.92-1.57,3.43-3.44,4.54-5.49l5.48-1.07-3.72-3.68Z" fill="#fff" stroke="#4b5459" stroke-miterlimit="10" stroke-width=".73"></path><path d="M27.72,35.61c0-.33-.01-.57-.01-.74,0-.96.14-1.79.41-2.49.2-.53.52-1.06.97-1.59.33-.39.92-.96,1.76-1.71.85-.75,1.4-1.35,1.66-1.79.25-.45.38-.93.38-1.46,0-.95-.37-1.79-1.12-2.51-.75-.72-1.66-1.08-2.74-1.08s-1.92.33-2.62.98c-.7.65-1.16,1.68-1.38,3.07l-2.52-.3c.23-1.86.9-3.29,2.02-4.28,1.12-.99,2.6-1.49,4.45-1.49,1.95,0,3.51.53,4.67,1.59,1.16,1.06,1.74,2.35,1.74,3.86,0,.87-.2,1.68-.61,2.41s-1.21,1.63-2.4,2.68c-.8.71-1.32,1.23-1.57,1.57-.25.34-.43.72-.55,1.16-.12.44-.19,1.14-.2,2.13h-2.36ZM27.57,40.53v-2.79h2.79v2.79h-2.79Z" fill="#4b5459"></path></svg> 